# Blender 4.1.1
# www.blender.org
mtllib Enemy03.mtl
o 球
v 0.000000 0.831470 0.555570
v 0.000000 0.555570 0.831470
v 0.000000 0.195090 0.980785
v 0.000000 0.000000 1.000000
v 0.000000 -0.195090 0.980785
v 0.000000 -0.555570 0.831470
v -0.038060 0.980785 0.191342
v -0.074658 0.923880 0.375330
v -0.108386 0.831470 0.544895
v -0.137950 0.707107 0.693520
v -0.162212 0.555570 0.815493
v -0.180240 0.382683 0.906127
v -0.191342 0.195090 0.961940
v -0.195090 0.000000 0.980785
v -0.191342 -0.195090 0.961940
v -0.180240 -0.382683 0.906127
v -0.162212 -0.555570 0.815493
v -0.137950 -0.707107 0.693520
v -0.108386 -0.831470 0.544895
v -0.074658 -0.923880 0.375330
v -0.038060 -0.980785 0.191342
v -0.074658 0.980785 0.180240
v -0.146447 0.923880 0.353553
v -0.212608 0.831470 0.513280
v -0.270598 0.707107 0.653281
v -0.318190 0.555570 0.768178
v -0.353553 0.382683 0.853553
v -0.375330 0.195090 0.906127
v -0.382683 0.000000 0.923879
v -0.375330 -0.195090 0.906127
v -0.353553 -0.382683 0.853553
v -0.318190 -0.555570 0.768178
v -0.270598 -0.707107 0.653281
v -0.212608 -0.831470 0.513280
v -0.146447 -0.923880 0.353553
v -0.074658 -0.980785 0.180240
v -0.108386 0.980785 0.162212
v -0.212608 0.923880 0.318190
v -0.308658 0.831470 0.461940
v -0.392847 0.707107 0.587938
v -0.461940 0.555570 0.691342
v -0.513280 0.382683 0.768178
v -0.544895 0.195090 0.815493
v -0.555570 0.000000 0.831469
v -0.544895 -0.195090 0.815493
v -0.513280 -0.382683 0.768178
v -0.461940 -0.555570 0.691342
v -0.392847 -0.707107 0.587938
v -0.308658 -0.831470 0.461940
v -0.212608 -0.923880 0.318190
v -0.108386 -0.980785 0.162212
v -0.137950 0.980785 0.137950
v -0.270598 0.923880 0.270598
v -0.392847 0.831470 0.392847
v -0.500000 0.707107 0.500000
v -0.587938 0.555570 0.587938
v -0.653281 0.382683 0.653281
v -0.693520 0.195090 0.693520
v -0.707107 0.000000 0.707107
v -0.693520 -0.195090 0.693520
v -0.653281 -0.382683 0.653281
v -0.587938 -0.555570 0.587938
v -0.500000 -0.707107 0.500000
v -0.392847 -0.831470 0.392847
v -0.270598 -0.923880 0.270598
v -0.137950 -0.980785 0.137950
v -0.162212 0.980785 0.108386
v -0.318190 0.923880 0.212608
v -0.461940 0.831470 0.308658
v -0.587938 0.707107 0.392847
v -0.691342 0.555570 0.461940
v -0.768178 0.382683 0.513280
v -0.815493 0.195090 0.544895
v -0.831470 0.000000 0.555570
v -0.815493 -0.195090 0.544895
v -0.768178 -0.382683 0.513280
v -0.691342 -0.555570 0.461940
v -0.587938 -0.707107 0.392847
v -0.461940 -0.831470 0.308658
v -0.318190 -0.923880 0.212608
v -0.162212 -0.980785 0.108386
v 0.000000 1.000000 0.000000
v -0.180240 0.980785 0.074658
v -0.353553 0.923880 0.146447
v -0.513280 0.831470 0.212607
v -0.653281 0.707107 0.270598
v -0.768178 0.555570 0.318190
v -0.853553 0.382683 0.353553
v -0.906127 0.195090 0.375330
v -0.923879 0.000000 0.382683
v -0.906127 -0.195090 0.375330
v -0.853553 -0.382683 0.353553
v -0.768178 -0.555570 0.318190
v -0.653281 -0.707107 0.270598
v -0.513280 -0.831470 0.212607
v -0.353553 -0.923880 0.146447
v -0.180240 -0.980785 0.074658
v -0.191342 0.980785 0.038060
v -0.375330 0.923880 0.074658
v -0.544895 0.831470 0.108386
v -0.693520 0.707107 0.137950
v -0.815493 0.555570 0.162212
v -0.906127 0.382683 0.180240
v -0.961940 0.195090 0.191342
v -0.980785 0.000000 0.195090
v -0.961940 -0.195090 0.191342
v -0.906127 -0.382683 0.180240
v -0.815493 -0.555570 0.162212
v -0.693520 -0.707107 0.137950
v -0.544895 -0.831470 0.108386
v -0.375330 -0.923880 0.074658
v -0.191342 -0.980785 0.038060
v -0.195090 0.980785 -0.000000
v -0.382683 0.923880 -0.000000
v -0.555570 0.831470 -0.000000
v -0.707107 0.707107 0.000000
v -0.831469 0.555570 -0.000000
v -0.923879 0.382683 0.000000
v -0.980785 0.195090 -0.000000
v -1.000000 0.000000 -0.000000
v -0.980785 -0.195090 -0.000000
v -0.923879 -0.382683 0.000000
v -0.831469 -0.555570 -0.000000
v -0.707107 -0.707107 0.000000
v -0.555570 -0.831470 -0.000000
v -0.382683 -0.923880 -0.000000
v -0.195090 -0.980785 -0.000000
v -0.191342 0.980785 -0.038060
v -0.375330 0.923880 -0.074658
v -0.544895 0.831470 -0.108386
v -0.693520 0.707107 -0.137950
v -0.815493 0.555570 -0.162212
v -0.906127 0.382683 -0.180240
v -0.961940 0.195090 -0.191342
v -0.980785 0.000000 -0.195090
v -0.961940 -0.195090 -0.191342
v -0.906127 -0.382683 -0.180240
v -0.815493 -0.555570 -0.162212
v -0.693520 -0.707107 -0.137950
v -0.544895 -0.831470 -0.108386
v -0.375330 -0.923880 -0.074658
v -0.191342 -0.980785 -0.038060
v -0.180240 0.980785 -0.074658
v -0.353553 0.923880 -0.146447
v -0.513280 0.831470 -0.212608
v -0.653281 0.707107 -0.270598
v -0.768178 0.555570 -0.318190
v -0.853553 0.382683 -0.353553
v -0.906127 0.195090 -0.375330
v -0.923879 0.000000 -0.382683
v -0.906127 -0.195090 -0.375330
v -0.853553 -0.382683 -0.353553
v -0.768178 -0.555570 -0.318190
v -0.653281 -0.707107 -0.270598
v -0.513280 -0.831470 -0.212608
v -0.353553 -0.923880 -0.146447
v -0.180240 -0.980785 -0.074658
v -0.162212 0.980785 -0.108386
v -0.318190 0.923880 -0.212608
v -0.461940 0.831470 -0.308658
v -0.587938 0.707107 -0.392847
v -0.691341 0.555570 -0.461940
v -0.768178 0.382683 -0.513280
v -0.815493 0.195090 -0.544895
v -0.831469 0.000000 -0.555570
v -0.815493 -0.195090 -0.544895
v -0.768178 -0.382683 -0.513280
v -0.691341 -0.555570 -0.461940
v -0.587938 -0.707107 -0.392847
v -0.461940 -0.831470 -0.308658
v -0.318190 -0.923880 -0.212608
v -0.162212 -0.980785 -0.108386
v -0.137950 0.980785 -0.137950
v -0.270598 0.923880 -0.270598
v -0.392847 0.831470 -0.392847
v -0.500000 0.707107 -0.500000
v -0.587938 0.555570 -0.587938
v -0.653281 0.382683 -0.653281
v -0.693520 0.195090 -0.693520
v -0.707106 0.000000 -0.707107
v -0.693520 -0.195090 -0.693520
v -0.653281 -0.382683 -0.653281
v -0.587938 -0.555570 -0.587938
v -0.500000 -0.707107 -0.500000
v -0.392847 -0.831470 -0.392847
v -0.270598 -0.923880 -0.270598
v -0.137950 -0.980785 -0.137950
v -0.108386 0.980785 -0.162212
v -0.212607 0.923880 -0.318190
v -0.308658 0.831470 -0.461940
v -0.392847 0.707107 -0.587938
v -0.461940 0.555570 -0.691342
v -0.513280 0.382683 -0.768178
v -0.544895 0.195090 -0.815493
v -0.555570 0.000000 -0.831469
v -0.544895 -0.195090 -0.815493
v -0.513280 -0.382683 -0.768178
v -0.461940 -0.555570 -0.691342
v -0.392847 -0.707107 -0.587938
v -0.308658 -0.831470 -0.461940
v -0.212607 -0.923880 -0.318190
v -0.108386 -0.980785 -0.162212
v -0.074658 0.980785 -0.180240
v -0.146447 0.923880 -0.353553
v -0.212607 0.831470 -0.513280
v -0.270598 0.707107 -0.653281
v -0.318189 0.555570 -0.768178
v -0.353553 0.382683 -0.853553
v -0.375330 0.195090 -0.906127
v -0.382683 0.000000 -0.923879
v -0.375330 -0.195090 -0.906127
v -0.353553 -0.382683 -0.853553
v -0.318189 -0.555570 -0.768178
v -0.270598 -0.707107 -0.653281
v -0.212607 -0.831470 -0.513280
v -0.146447 -0.923880 -0.353553
v -0.074658 -0.980785 -0.180240
v -0.038060 0.980785 -0.191342
v -0.074658 0.923880 -0.375330
v -0.108386 0.831470 -0.544895
v -0.137950 0.707107 -0.693520
v -0.162212 0.555570 -0.815493
v -0.180240 0.382683 -0.906127
v -0.191342 0.195090 -0.961939
v -0.195090 0.000000 -0.980785
v -0.191342 -0.195090 -0.961939
v -0.180240 -0.382683 -0.906127
v -0.162212 -0.555570 -0.815493
v -0.137950 -0.707107 -0.693520
v -0.108386 -0.831470 -0.544895
v -0.074658 -0.923880 -0.375330
v -0.038060 -0.980785 -0.191342
v 0.000000 0.980785 -0.195090
v 0.000000 0.923880 -0.382683
v 0.000000 0.831470 -0.555570
v 0.000000 0.707107 -0.707107
v 0.000000 0.555570 -0.831469
v -0.000000 0.382683 -0.923879
v 0.000000 0.195090 -0.980785
v 0.000000 0.000000 -0.999999
v 0.000000 -0.195090 -0.980785
v -0.000000 -0.382683 -0.923879
v 0.000000 -0.555570 -0.831469
v 0.000000 -0.707107 -0.707107
v 0.000000 -0.831470 -0.555570
v 0.000000 -0.923880 -0.382683
v 0.000000 -0.980785 -0.195090
v 0.038060 0.980785 -0.191342
v 0.074658 0.923880 -0.375330
v 0.108386 0.831470 -0.544895
v 0.137950 0.707107 -0.693520
v 0.162212 0.555570 -0.815493
v 0.180240 0.382683 -0.906127
v 0.191342 0.195090 -0.961939
v 0.195091 0.000000 -0.980785
v 0.191342 -0.195090 -0.961939
v 0.180240 -0.382683 -0.906127
v 0.162212 -0.555570 -0.815493
v 0.137950 -0.707107 -0.693520
v 0.108386 -0.831470 -0.544895
v 0.074658 -0.923880 -0.375330
v 0.038060 -0.980785 -0.191342
v 0.074658 0.980785 -0.180240
v 0.146447 0.923880 -0.353553
v 0.212608 0.831470 -0.513280
v 0.270598 0.707107 -0.653281
v 0.318190 0.555570 -0.768177
v 0.353553 0.382683 -0.853553
v 0.375330 0.195090 -0.906127
v 0.382683 0.000000 -0.923879
v 0.375330 -0.195090 -0.906127
v 0.353553 -0.382683 -0.853553
v 0.318190 -0.555570 -0.768177
v 0.270598 -0.707107 -0.653281
v 0.212608 -0.831470 -0.513280
v 0.146447 -0.923880 -0.353553
v 0.074658 -0.980785 -0.180240
v 0.108386 0.980785 -0.162212
v 0.212608 0.923880 -0.318190
v 0.308658 0.831470 -0.461939
v 0.392847 0.707107 -0.587938
v 0.461940 0.555570 -0.691341
v 0.513280 0.382683 -0.768178
v 0.544895 0.195090 -0.815493
v 0.555570 0.000000 -0.831469
v 0.544895 -0.195090 -0.815493
v 0.513280 -0.382683 -0.768178
v 0.461940 -0.555570 -0.691341
v 0.392847 -0.707107 -0.587938
v 0.308658 -0.831470 -0.461939
v 0.212608 -0.923880 -0.318190
v 0.108386 -0.980785 -0.162212
v 0.137950 0.980785 -0.137950
v 0.270598 0.923880 -0.270598
v 0.392847 0.831470 -0.392847
v 0.500000 0.707107 -0.500000
v 0.587938 0.555570 -0.587937
v 0.653281 0.382683 -0.653281
v 0.693520 0.195090 -0.693520
v 0.707106 0.000000 -0.707106
v 0.693520 -0.195090 -0.693520
v 0.653281 -0.382683 -0.653281
v 0.587938 -0.555570 -0.587937
v 0.500000 -0.707107 -0.500000
v 0.392847 -0.831470 -0.392847
v 0.270598 -0.923880 -0.270598
v 0.137950 -0.980785 -0.137950
v 0.000000 -1.000000 0.000000
v 0.162212 0.980785 -0.108386
v 0.318190 0.923880 -0.212607
v 0.461940 0.831470 -0.308658
v 0.587938 0.707107 -0.392847
v 0.691341 0.555570 -0.461939
v 0.768177 0.382683 -0.513280
v 0.815493 0.195090 -0.544895
v 0.831469 0.000000 -0.555569
v 0.815493 -0.195090 -0.544895
v 0.768177 -0.382683 -0.513280
v 0.691341 -0.555570 -0.461939
v 0.587938 -0.707107 -0.392847
v 0.461940 -0.831470 -0.308658
v 0.318190 -0.923880 -0.212607
v 0.162212 -0.980785 -0.108386
v 0.180240 0.980785 -0.074658
v 0.353553 0.923880 -0.146447
v 0.513280 0.831470 -0.212607
v 0.653281 0.707107 -0.270598
v 0.768177 0.555570 -0.318189
v 0.853553 0.382683 -0.353553
v 0.906127 0.195090 -0.375330
v 0.923879 0.000000 -0.382683
v 0.906127 -0.195090 -0.375330
v 0.853553 -0.382683 -0.353553
v 0.768177 -0.555570 -0.318189
v 0.653281 -0.707107 -0.270598
v 0.513280 -0.831470 -0.212607
v 0.353553 -0.923880 -0.146447
v 0.180240 -0.980785 -0.074658
v 0.191342 0.980785 -0.038060
v 0.375330 0.923880 -0.074658
v 0.544895 0.831470 -0.108386
v 0.693520 0.707107 -0.137950
v 0.815493 0.555570 -0.162211
v 0.906127 0.382683 -0.180240
v 0.961939 0.195090 -0.191341
v 0.980784 0.000000 -0.195090
v 0.961939 -0.195090 -0.191341
v 0.906127 -0.382683 -0.180240
v 0.815493 -0.555570 -0.162211
v 0.693520 -0.707107 -0.137950
v 0.544895 -0.831470 -0.108386
v 0.375330 -0.923880 -0.074658
v 0.191342 -0.980785 -0.038060
v 0.195090 0.980785 0.000000
v 0.382683 0.923880 0.000000
v 0.555570 0.831470 0.000000
v 0.707107 0.707107 0.000000
v 0.831469 0.555570 0.000000
v 0.923879 0.382683 0.000000
v 0.980785 0.195090 0.000000
v 0.999999 0.000000 0.000000
v 0.980785 -0.195090 0.000000
v 0.923879 -0.382683 0.000000
v 0.831469 -0.555570 0.000000
v 0.707107 -0.707107 0.000000
v 0.555570 -0.831470 0.000000
v 0.382683 -0.923880 0.000000
v 0.195090 -0.980785 0.000000
v 0.191342 0.980785 0.038060
v 0.375330 0.923880 0.074658
v 0.544895 0.831470 0.108386
v 0.693520 0.707107 0.137950
v 0.815493 0.555570 0.162212
v 0.906127 0.382683 0.180240
v 0.961939 0.195090 0.191342
v 0.980784 0.000000 0.195091
v 0.961939 -0.195090 0.191342
v 0.906127 -0.382683 0.180240
v 0.815493 -0.555570 0.162212
v 0.693520 -0.707107 0.137950
v 0.544895 -0.831470 0.108386
v 0.375330 -0.923880 0.074658
v 0.191342 -0.980785 0.038060
v 0.180240 0.980785 0.074658
v 0.353553 0.923880 0.146447
v 0.513279 0.831470 0.212607
v 0.653281 0.707107 0.270598
v 0.768177 0.555570 0.318190
v 0.853553 0.382683 0.353553
v 0.906127 0.195090 0.375330
v 0.923878 0.000000 0.382683
v 0.906127 -0.195090 0.375330
v 0.853553 -0.382683 0.353553
v 0.768177 -0.555570 0.318190
v 0.653281 -0.707107 0.270598
v 0.513279 -0.831470 0.212607
v 0.353553 -0.923880 0.146447
v 0.180240 -0.980785 0.074658
v 0.162212 0.980785 0.108386
v 0.318189 0.923880 0.212607
v 0.461939 0.831470 0.308658
v 0.587938 0.707107 0.392847
v 0.691341 0.555570 0.461940
v 0.768177 0.382683 0.513280
v 0.815493 0.195090 0.544895
v 0.831468 0.000000 0.555570
v 0.815493 -0.195090 0.544895
v 0.768177 -0.382683 0.513280
v 0.691341 -0.555570 0.461940
v 0.587938 -0.707107 0.392847
v 0.461939 -0.831470 0.308658
v 0.318189 -0.923880 0.212607
v 0.162212 -0.980785 0.108386
v 0.137950 0.980785 0.137950
v 0.270598 0.923880 0.270598
v 0.392847 0.831470 0.392847
v 0.500000 0.707107 0.500000
v 0.587937 0.555570 0.587938
v 0.653281 0.382683 0.653281
v 0.693519 0.195090 0.693520
v 0.707106 0.000000 0.707106
v 0.693519 -0.195090 0.693520
v 0.653281 -0.382683 0.653281
v 0.587937 -0.555570 0.587938
v 0.500000 -0.707107 0.500000
v 0.392847 -0.831470 0.392847
v 0.270598 -0.923880 0.270598
v 0.137950 -0.980785 0.137950
v 0.108386 0.980785 0.162212
v 0.212607 0.923880 0.318190
v 0.308658 0.831470 0.461939
v 0.392847 0.707107 0.587938
v 0.461939 0.555570 0.691341
v 0.513280 0.382683 0.768177
v 0.544895 0.195090 0.815493
v 0.555569 0.000000 0.831469
v 0.544895 -0.195090 0.815493
v 0.513280 -0.382683 0.768177
v 0.461939 -0.555570 0.691341
v 0.392847 -0.707107 0.587938
v 0.308658 -0.831470 0.461939
v 0.212607 -0.923880 0.318190
v 0.108386 -0.980785 0.162212
v 0.074658 0.980785 0.180240
v 0.146446 0.923880 0.353553
v 0.212607 0.831470 0.513279
v 0.270598 0.707107 0.653281
v 0.318189 0.555570 0.768177
v 0.353553 0.382683 0.853553
v 0.375330 0.195090 0.906127
v 0.382683 0.000000 0.923879
v 0.375330 -0.195090 0.906127
v 0.353553 -0.382683 0.853553
v 0.318189 -0.555570 0.768177
v 0.270598 -0.707107 0.653281
v 0.212607 -0.831470 0.513279
v 0.146446 -0.923880 0.353553
v 0.074658 -0.980785 0.180240
v 0.038060 0.980785 0.191342
v 0.074658 0.923880 0.375330
v 0.108386 0.831470 0.544895
v 0.137950 0.707107 0.693520
v 0.162211 0.555570 0.815493
v 0.180240 0.382683 0.906127
v 0.191341 0.195090 0.961939
v 0.195090 0.000000 0.980784
v 0.191341 -0.195090 0.961939
v 0.180240 -0.382683 0.906127
v 0.162211 -0.555570 0.815493
v 0.137950 -0.707107 0.693520
v 0.108386 -0.831470 0.544895
v 0.074658 -0.923880 0.375330
v 0.038060 -0.980785 0.191342
v -0.000000 0.980785 0.195090
v -0.000000 0.923880 0.382683
v -0.000000 0.707107 0.707107
v -0.000000 0.382683 0.923879
v -0.000000 -0.382683 0.923879
v -0.000000 -0.707107 0.707107
v -0.000000 -0.831470 0.555570
v -0.000000 -0.923880 0.382683
v -0.000000 -0.980785 0.195090
vn -0.0097 -0.9951 0.0980
vn -0.0975 -0.0976 0.9904
vn -0.0286 0.9565 0.2902
vn -0.0938 -0.2890 0.9527
vn -0.0464 0.8810 0.4709
vn -0.0865 -0.4696 0.8786
vn -0.0624 0.7715 0.6332
vn -0.0759 -0.6326 0.7708
vn -0.0759 0.6326 0.7708
vn -0.0624 -0.7715 0.6332
vn -0.0865 0.4696 0.8786
vn -0.0464 -0.8810 0.4709
vn -0.0938 0.2890 0.9527
vn -0.0286 -0.9565 0.2902
vn -0.0975 0.0975 0.9904
vn -0.0097 0.9951 0.0980
vn -0.0846 -0.9565 0.2790
vn -0.2889 0.0976 0.9524
vn -0.0286 0.9951 0.0942
vn -0.0286 -0.9951 0.0942
vn -0.2889 -0.0976 0.9524
vn -0.0846 0.9565 0.2790
vn -0.2779 -0.2890 0.9161
vn -0.1374 0.8810 0.4528
vn -0.2563 -0.4696 0.8448
vn -0.1847 0.7715 0.6088
vn -0.2248 -0.6326 0.7412
vn -0.2248 0.6326 0.7412
vn -0.1847 -0.7715 0.6088
vn -0.2563 0.4696 0.8448
vn -0.1374 -0.8810 0.4528
vn -0.2779 0.2890 0.9161
vn -0.2999 0.7715 0.5611
vn -0.3651 -0.6326 0.6831
vn -0.3651 0.6326 0.6831
vn -0.2999 -0.7715 0.5611
vn -0.4162 0.4696 0.7786
vn -0.2230 -0.8810 0.4173
vn -0.4513 0.2890 0.8443
vn -0.1374 -0.9565 0.2571
vn -0.4691 0.0975 0.8777
vn -0.0464 0.9951 0.0869
vn -0.0464 -0.9951 0.0869
vn -0.4691 -0.0975 0.8777
vn -0.1374 0.9565 0.2571
vn -0.4513 -0.2890 0.8443
vn -0.2231 0.8810 0.4173
vn -0.4162 -0.4696 0.7786
vn -0.6314 0.0975 0.7693
vn -0.0625 0.9951 0.0761
vn -0.0625 -0.9951 0.0761
vn -0.6314 -0.0975 0.7693
vn -0.1850 0.9565 0.2254
vn -0.6073 -0.2890 0.7400
vn -0.3002 0.8810 0.3658
vn -0.5601 -0.4696 0.6825
vn -0.4036 0.7715 0.4918
vn -0.4913 -0.6326 0.5987
vn -0.4913 0.6326 0.5987
vn -0.4036 -0.7715 0.4918
vn -0.5601 0.4696 0.6825
vn -0.3002 -0.8810 0.3658
vn -0.6073 0.2890 0.7400
vn -0.1850 -0.9565 0.2254
vn -0.5987 -0.6326 0.4913
vn -0.5987 0.6326 0.4913
vn -0.4918 -0.7715 0.4036
vn -0.6825 0.4696 0.5601
vn -0.3658 -0.8810 0.3002
vn -0.7400 0.2890 0.6073
vn -0.2254 -0.9566 0.1850
vn -0.7693 0.0975 0.6314
vn -0.0761 0.9951 0.0625
vn -0.0761 -0.9951 0.0625
vn -0.7693 -0.0975 0.6314
vn -0.2254 0.9565 0.1850
vn -0.7400 -0.2890 0.6073
vn -0.3658 0.8810 0.3002
vn -0.6825 -0.4696 0.5601
vn -0.4918 0.7715 0.4036
vn -0.0869 -0.9951 0.0464
vn -0.8777 -0.0975 0.4691
vn -0.2571 0.9565 0.1374
vn -0.8443 -0.2890 0.4513
vn -0.4173 0.8810 0.2230
vn -0.7786 -0.4696 0.4162
vn -0.5611 0.7715 0.2999
vn -0.6831 -0.6326 0.3651
vn -0.6831 0.6326 0.3651
vn -0.5611 -0.7715 0.2999
vn -0.7786 0.4696 0.4162
vn -0.4173 -0.8810 0.2230
vn -0.8443 0.2890 0.4513
vn -0.2571 -0.9565 0.1374
vn -0.8777 0.0975 0.4691
vn -0.0869 0.9951 0.0464
vn -0.6088 -0.7715 0.1847
vn -0.8448 0.4696 0.2563
vn -0.4528 -0.8810 0.1374
vn -0.9161 0.2890 0.2779
vn -0.2790 -0.9565 0.0846
vn -0.9524 0.0975 0.2889
vn -0.0942 0.9951 0.0286
vn -0.0942 -0.9951 0.0286
vn -0.9524 -0.0975 0.2889
vn -0.2790 0.9565 0.0846
vn -0.9161 -0.2890 0.2779
vn -0.4528 0.8810 0.1374
vn -0.8448 -0.4696 0.2563
vn -0.6088 0.7715 0.1847
vn -0.7412 -0.6326 0.2248
vn -0.7412 0.6326 0.2248
vn -0.2902 0.9565 0.0286
vn -0.9527 -0.2890 0.0938
vn -0.4709 0.8810 0.0464
vn -0.8786 -0.4696 0.0865
vn -0.6332 0.7715 0.0624
vn -0.7708 -0.6326 0.0759
vn -0.7708 0.6326 0.0759
vn -0.6332 -0.7715 0.0624
vn -0.8786 0.4696 0.0865
vn -0.4709 -0.8810 0.0464
vn -0.9527 0.2890 0.0938
vn -0.2902 -0.9565 0.0286
vn -0.9904 0.0975 0.0975
vn -0.0980 0.9951 0.0097
vn -0.0980 -0.9951 0.0097
vn -0.9904 -0.0975 0.0975
vn -0.8786 0.4696 -0.0865
vn -0.4709 -0.8810 -0.0464
vn -0.9527 0.2890 -0.0938
vn -0.2902 -0.9565 -0.0286
vn -0.9904 0.0975 -0.0976
vn -0.0980 0.9951 -0.0097
vn -0.0980 -0.9951 -0.0097
vn -0.9904 -0.0975 -0.0976
vn -0.2902 0.9565 -0.0286
vn -0.9527 -0.2890 -0.0938
vn -0.4709 0.8810 -0.0464
vn -0.8786 -0.4696 -0.0865
vn -0.6332 0.7715 -0.0624
vn -0.7708 -0.6326 -0.0759
vn -0.7708 0.6326 -0.0759
vn -0.6332 -0.7715 -0.0624
vn -0.9161 -0.2890 -0.2779
vn -0.4528 0.8810 -0.1374
vn -0.8448 -0.4696 -0.2563
vn -0.6088 0.7715 -0.1847
vn -0.7412 -0.6326 -0.2248
vn -0.7412 0.6326 -0.2248
vn -0.6088 -0.7715 -0.1847
vn -0.8448 0.4696 -0.2563
vn -0.4528 -0.8810 -0.1374
vn -0.9161 0.2890 -0.2779
vn -0.2790 -0.9565 -0.0846
vn -0.9524 0.0975 -0.2889
vn -0.0942 0.9951 -0.0286
vn -0.0942 -0.9951 -0.0286
vn -0.9524 -0.0975 -0.2889
vn -0.2790 0.9565 -0.0846
vn -0.4173 -0.8810 -0.2230
vn -0.8443 0.2890 -0.4513
vn -0.2571 -0.9565 -0.1374
vn -0.8777 0.0975 -0.4691
vn -0.0869 0.9951 -0.0464
vn -0.0869 -0.9951 -0.0464
vn -0.8777 -0.0975 -0.4691
vn -0.2571 0.9565 -0.1374
vn -0.8443 -0.2890 -0.4513
vn -0.4173 0.8810 -0.2231
vn -0.7786 -0.4696 -0.4162
vn -0.5611 0.7715 -0.2999
vn -0.6831 -0.6326 -0.3651
vn -0.6831 0.6326 -0.3651
vn -0.5611 -0.7715 -0.2999
vn -0.7786 0.4696 -0.4162
vn -0.3658 0.8810 -0.3002
vn -0.6825 -0.4696 -0.5601
vn -0.4918 0.7715 -0.4036
vn -0.5987 -0.6326 -0.4913
vn -0.5987 0.6326 -0.4913
vn -0.4918 -0.7715 -0.4036
vn -0.6825 0.4696 -0.5601
vn -0.3658 -0.8810 -0.3002
vn -0.7400 0.2890 -0.6073
vn -0.2254 -0.9565 -0.1850
vn -0.7693 0.0975 -0.6314
vn -0.0761 0.9951 -0.0625
vn -0.0761 -0.9951 -0.0625
vn -0.7693 -0.0975 -0.6314
vn -0.2254 0.9565 -0.1850
vn -0.7400 -0.2890 -0.6073
vn -0.6073 0.2890 -0.7400
vn -0.1850 -0.9565 -0.2254
vn -0.6314 0.0975 -0.7693
vn -0.0625 0.9951 -0.0761
vn -0.0625 -0.9951 -0.0761
vn -0.6314 -0.0975 -0.7693
vn -0.1850 0.9565 -0.2254
vn -0.6073 -0.2890 -0.7400
vn -0.3002 0.8810 -0.3658
vn -0.5601 -0.4696 -0.6825
vn -0.4036 0.7715 -0.4918
vn -0.4913 -0.6326 -0.5987
vn -0.4913 0.6326 -0.5987
vn -0.4036 -0.7715 -0.4918
vn -0.5601 0.4696 -0.6825
vn -0.3002 -0.8810 -0.3658
vn -0.4162 -0.4696 -0.7786
vn -0.2999 0.7715 -0.5611
vn -0.3651 -0.6326 -0.6831
vn -0.3651 0.6326 -0.6831
vn -0.2999 -0.7715 -0.5611
vn -0.4162 0.4696 -0.7786
vn -0.2230 -0.8810 -0.4173
vn -0.4513 0.2890 -0.8443
vn -0.1374 -0.9565 -0.2571
vn -0.4691 0.0975 -0.8777
vn -0.0464 0.9951 -0.0869
vn -0.0464 -0.9951 -0.0869
vn -0.4691 -0.0975 -0.8777
vn -0.1374 0.9565 -0.2571
vn -0.4513 -0.2890 -0.8443
vn -0.2230 0.8810 -0.4173
vn -0.0846 -0.9565 -0.2790
vn -0.2889 0.0975 -0.9524
vn -0.0286 0.9951 -0.0942
vn -0.0286 -0.9951 -0.0942
vn -0.2889 -0.0975 -0.9524
vn -0.0846 0.9565 -0.2790
vn -0.2779 -0.2890 -0.9161
vn -0.1374 0.8810 -0.4528
vn -0.2563 -0.4696 -0.8448
vn -0.1847 0.7715 -0.6088
vn -0.2248 -0.6326 -0.7412
vn -0.2248 0.6326 -0.7412
vn -0.1847 -0.7715 -0.6088
vn -0.2563 0.4696 -0.8448
vn -0.1374 -0.8810 -0.4528
vn -0.2779 0.2890 -0.9161
vn -0.0759 -0.6326 -0.7708
vn -0.0759 0.6326 -0.7708
vn -0.0624 -0.7715 -0.6332
vn -0.0865 0.4696 -0.8786
vn -0.0464 -0.8810 -0.4709
vn -0.0938 0.2890 -0.9527
vn -0.0286 -0.9565 -0.2902
vn -0.0975 0.0975 -0.9904
vn -0.0097 0.9951 -0.0980
vn -0.0097 -0.9951 -0.0980
vn -0.0975 -0.0975 -0.9904
vn -0.0286 0.9565 -0.2902
vn -0.0938 -0.2890 -0.9527
vn -0.0464 0.8810 -0.4709
vn -0.0865 -0.4696 -0.8786
vn -0.0624 0.7715 -0.6332
vn 0.0097 0.9951 -0.0980
vn 0.0097 -0.9951 -0.0980
vn 0.0975 -0.0975 -0.9904
vn 0.0286 0.9565 -0.2902
vn 0.0938 -0.2890 -0.9527
vn 0.0464 0.8810 -0.4709
vn 0.0865 -0.4696 -0.8786
vn 0.0624 0.7715 -0.6332
vn 0.0759 -0.6326 -0.7708
vn 0.0759 0.6326 -0.7708
vn 0.0624 -0.7715 -0.6332
vn 0.0865 0.4696 -0.8786
vn 0.0464 -0.8810 -0.4709
vn 0.0938 0.2890 -0.9527
vn 0.0286 -0.9565 -0.2902
vn 0.0976 0.0975 -0.9904
vn 0.2248 0.6326 -0.7412
vn 0.1847 -0.7715 -0.6088
vn 0.2563 0.4696 -0.8448
vn 0.1374 -0.8810 -0.4528
vn 0.2779 0.2890 -0.9161
vn 0.0846 -0.9565 -0.2790
vn 0.2889 0.0975 -0.9524
vn 0.0286 0.9951 -0.0942
vn 0.0286 -0.9951 -0.0942
vn 0.2889 -0.0975 -0.9524
vn 0.0846 0.9565 -0.2790
vn 0.2779 -0.2890 -0.9161
vn 0.1374 0.8810 -0.4528
vn 0.2563 -0.4696 -0.8448
vn 0.1847 0.7715 -0.6088
vn 0.2248 -0.6326 -0.7412
vn 0.4691 -0.0975 -0.8777
vn 0.1374 0.9565 -0.2571
vn 0.4513 -0.2890 -0.8443
vn 0.2230 0.8810 -0.4173
vn 0.4162 -0.4696 -0.7786
vn 0.2999 0.7715 -0.5611
vn 0.3651 -0.6326 -0.6831
vn 0.3651 0.6326 -0.6831
vn 0.2999 -0.7715 -0.5611
vn 0.4162 0.4696 -0.7786
vn 0.2230 -0.8810 -0.4173
vn 0.4513 0.2890 -0.8443
vn 0.1374 -0.9565 -0.2571
vn 0.4691 0.0975 -0.8777
vn 0.0464 0.9951 -0.0869
vn 0.0464 -0.9951 -0.0869
vn 0.4036 -0.7715 -0.4918
vn 0.5601 0.4696 -0.6825
vn 0.3002 -0.8810 -0.3658
vn 0.6073 0.2890 -0.7400
vn 0.1850 -0.9565 -0.2254
vn 0.6314 0.0975 -0.7693
vn 0.0625 0.9951 -0.0761
vn 0.0625 -0.9951 -0.0761
vn 0.6314 -0.0975 -0.7693
vn 0.1850 0.9565 -0.2254
vn 0.6073 -0.2890 -0.7400
vn 0.3002 0.8810 -0.3658
vn 0.5601 -0.4696 -0.6825
vn 0.4036 0.7715 -0.4918
vn 0.4913 -0.6326 -0.5987
vn 0.4913 0.6326 -0.5987
vn 0.2254 0.9565 -0.1850
vn 0.7400 -0.2890 -0.6073
vn 0.3658 0.8810 -0.3002
vn 0.6825 -0.4696 -0.5601
vn 0.4918 0.7715 -0.4036
vn 0.5987 -0.6326 -0.4913
vn 0.5987 0.6326 -0.4913
vn 0.4918 -0.7715 -0.4036
vn 0.6825 0.4696 -0.5601
vn 0.3658 -0.8810 -0.3002
vn 0.7400 0.2890 -0.6073
vn 0.2254 -0.9566 -0.1850
vn 0.7693 0.0975 -0.6314
vn 0.0761 0.9951 -0.0625
vn 0.0761 -0.9951 -0.0625
vn 0.7693 -0.0975 -0.6314
vn 0.7786 0.4696 -0.4162
vn 0.4173 -0.8810 -0.2231
vn 0.8443 0.2890 -0.4513
vn 0.2571 -0.9565 -0.1374
vn 0.8777 0.0975 -0.4691
vn 0.0869 0.9951 -0.0464
vn 0.0869 -0.9951 -0.0464
vn 0.8777 -0.0975 -0.4691
vn 0.2571 0.9565 -0.1374
vn 0.8443 -0.2890 -0.4513
vn 0.4173 0.8810 -0.2230
vn 0.7786 -0.4696 -0.4162
vn 0.5611 0.7715 -0.2999
vn 0.6831 -0.6326 -0.3651
vn 0.6831 0.6326 -0.3651
vn 0.5611 -0.7715 -0.2999
vn 0.9161 -0.2890 -0.2779
vn 0.4528 0.8810 -0.1374
vn 0.8448 -0.4696 -0.2563
vn 0.6088 0.7715 -0.1847
vn 0.7412 -0.6326 -0.2248
vn 0.7412 0.6326 -0.2248
vn 0.6088 -0.7715 -0.1847
vn 0.8448 0.4696 -0.2563
vn 0.4528 -0.8810 -0.1374
vn 0.9161 0.2890 -0.2779
vn 0.2790 -0.9565 -0.0846
vn 0.9524 0.0975 -0.2889
vn 0.0942 0.9951 -0.0286
vn 0.0942 -0.9951 -0.0286
vn 0.9524 -0.0975 -0.2889
vn 0.2790 0.9565 -0.0846
vn 0.4709 -0.8810 -0.0464
vn 0.9527 0.2890 -0.0938
vn 0.2902 -0.9565 -0.0286
vn 0.9904 0.0975 -0.0975
vn 0.0980 0.9951 -0.0097
vn 0.0980 -0.9951 -0.0097
vn 0.9904 -0.0975 -0.0976
vn 0.2902 0.9565 -0.0286
vn 0.9527 -0.2890 -0.0938
vn 0.4709 0.8810 -0.0464
vn 0.8786 -0.4696 -0.0865
vn 0.6332 0.7715 -0.0624
vn 0.7708 -0.6326 -0.0759
vn 0.7708 0.6326 -0.0759
vn 0.6332 -0.7715 -0.0624
vn 0.8786 0.4696 -0.0865
vn 0.8786 -0.4696 0.0865
vn 0.6332 0.7715 0.0624
vn 0.7708 -0.6326 0.0759
vn 0.7708 0.6326 0.0759
vn 0.6332 -0.7715 0.0624
vn 0.8786 0.4696 0.0865
vn 0.4709 -0.8810 0.0464
vn 0.9527 0.2890 0.0938
vn 0.2902 -0.9565 0.0286
vn 0.9904 0.0975 0.0975
vn 0.0980 0.9951 0.0097
vn 0.0980 -0.9951 0.0097
vn 0.9904 -0.0975 0.0976
vn 0.2902 0.9565 0.0286
vn 0.9527 -0.2890 0.0938
vn 0.4709 0.8810 0.0464
vn 0.2790 -0.9565 0.0846
vn 0.9524 0.0975 0.2889
vn 0.0942 0.9951 0.0286
vn 0.0942 -0.9951 0.0286
vn 0.9524 -0.0975 0.2889
vn 0.2790 0.9565 0.0846
vn 0.9161 -0.2890 0.2779
vn 0.4528 0.8810 0.1374
vn 0.8448 -0.4696 0.2563
vn 0.6088 0.7715 0.1847
vn 0.7412 -0.6326 0.2248
vn 0.7412 0.6326 0.2248
vn 0.6088 -0.7715 0.1847
vn 0.8448 0.4696 0.2563
vn 0.4528 -0.8810 0.1374
vn 0.9161 0.2890 0.2779
vn 0.5611 0.7715 0.2999
vn 0.6831 -0.6326 0.3651
vn 0.6831 0.6326 0.3651
vn 0.5611 -0.7715 0.2999
vn 0.7786 0.4696 0.4162
vn 0.4173 -0.8810 0.2231
vn 0.8443 0.2890 0.4513
vn 0.2571 -0.9565 0.1374
vn 0.8777 0.0975 0.4691
vn 0.0869 0.9951 0.0464
vn 0.0869 -0.9951 0.0464
vn 0.8777 -0.0975 0.4691
vn 0.2571 0.9565 0.1374
vn 0.8443 -0.2890 0.4513
vn 0.4173 0.8810 0.2231
vn 0.7786 -0.4696 0.4162
vn 0.7693 0.0975 0.6314
vn 0.0761 0.9951 0.0625
vn 0.0761 -0.9951 0.0625
vn 0.7693 -0.0975 0.6314
vn 0.2254 0.9565 0.1850
vn 0.7400 -0.2890 0.6073
vn 0.3658 0.8810 0.3002
vn 0.6825 -0.4696 0.5601
vn 0.4918 0.7715 0.4036
vn 0.5987 -0.6326 0.4913
vn 0.5987 0.6326 0.4913
vn 0.4918 -0.7715 0.4036
vn 0.6825 0.4696 0.5601
vn 0.3658 -0.8810 0.3002
vn 0.7400 0.2890 0.6073
vn 0.2254 -0.9565 0.1850
vn 0.4913 -0.6326 0.5987
vn 0.4913 0.6326 0.5987
vn 0.4036 -0.7715 0.4918
vn 0.5601 0.4696 0.6825
vn 0.3002 -0.8810 0.3658
vn 0.6073 0.2890 0.7400
vn 0.1850 -0.9565 0.2254
vn 0.6314 0.0975 0.7693
vn 0.0625 0.9951 0.0761
vn 0.0625 -0.9951 0.0761
vn 0.6314 -0.0975 0.7693
vn 0.1850 0.9565 0.2254
vn 0.6073 -0.2890 0.7400
vn 0.3002 0.8810 0.3658
vn 0.5601 -0.4696 0.6825
vn 0.4036 0.7715 0.4918
vn 0.0464 0.9951 0.0869
vn 0.0464 -0.9951 0.0869
vn 0.4691 -0.0975 0.8777
vn 0.1374 0.9565 0.2571
vn 0.4513 -0.2890 0.8443
vn 0.2230 0.8810 0.4173
vn 0.4162 -0.4696 0.7786
vn 0.2999 0.7715 0.5611
vn 0.3651 -0.6326 0.6831
vn 0.3651 0.6326 0.6831
vn 0.2999 -0.7715 0.5611
vn 0.4162 0.4696 0.7786
vn 0.2230 -0.8810 0.4173
vn 0.4513 0.2890 0.8443
vn 0.1374 -0.9565 0.2571
vn 0.4691 0.0975 0.8777
vn 0.2248 0.6326 0.7412
vn 0.1847 -0.7715 0.6088
vn 0.2563 0.4696 0.8448
vn 0.1374 -0.8810 0.4528
vn 0.2779 0.2890 0.9161
vn 0.0846 -0.9565 0.2790
vn 0.2889 0.0975 0.9524
vn 0.0286 0.9951 0.0942
vn 0.0286 -0.9951 0.0942
vn 0.2889 -0.0975 0.9524
vn 0.0846 0.9565 0.2790
vn 0.2779 -0.2890 0.9161
vn 0.1374 0.8810 0.4528
vn 0.2563 -0.4696 0.8448
vn 0.1847 0.7715 0.6088
vn 0.2248 -0.6326 0.7412
vn 0.0976 -0.0975 0.9904
vn 0.0286 0.9565 0.2902
vn 0.0938 -0.2890 0.9527
vn 0.0464 0.8810 0.4709
vn 0.0865 -0.4696 0.8786
vn 0.0624 0.7715 0.6332
vn 0.0759 -0.6326 0.7708
vn 0.0759 0.6326 0.7708
vn 0.0624 -0.7715 0.6332
vn 0.0865 0.4696 0.8786
vn 0.0464 -0.8810 0.4709
vn 0.0938 0.2890 0.9527
vn 0.0286 -0.9565 0.2902
vn 0.0976 0.0975 0.9904
vn 0.0097 0.9951 0.0980
vn 0.0097 -0.9951 0.0980
vn -0.0975 -0.0975 0.9904
vn -0.0975 0.0976 0.9904
vn -0.2231 -0.8810 0.4173
vn -0.2230 0.8810 0.4173
vn -0.2254 -0.9565 0.1850
vn -0.4173 -0.8810 -0.2231
vn -0.4173 0.8810 -0.2230
vn -0.2231 -0.8810 -0.4173
vn 0.0976 -0.0975 -0.9904
vn 0.0975 0.0975 -0.9904
vn 0.2231 0.8810 -0.4173
vn 0.2231 -0.8810 -0.4173
vn 0.2254 -0.9565 -0.1850
vn 0.4173 -0.8810 -0.2230
vn 0.9904 0.0975 -0.0976
vn 0.9904 -0.0975 -0.0975
vn 0.9904 0.0975 0.0976
vn 0.9904 -0.0975 0.0975
vt 0.038619 0.452584
vt 0.088491 0.419927
vt 0.093883 0.430231
vt 0.303628 0.342326
vt 0.281286 0.367121
vt 0.279101 0.343696
vt 0.477967 0.384676
vt 0.522547 0.423986
vt 0.470935 0.400037
vt 0.257892 0.369834
vt 0.254109 0.347041
vt 0.440738 0.367333
vt 0.434157 0.385784
vt 0.233180 0.374261
vt 0.228086 0.352634
vt 0.409089 0.356170
vt 0.403336 0.376839
vt 0.206474 0.380950
vt 0.200132 0.360970
vt 0.380114 0.349119
vt 0.376093 0.371157
vt 0.176780 0.390862
vt 0.169769 0.373157
vt 0.353630 0.344671
vt 0.350899 0.367826
vt 0.141549 0.406004
vt 0.134276 0.391454
vt 0.328336 0.342457
vt 0.327273 0.366177
vt 0.304245 0.365944
vt 0.527723 0.412733
vt 0.582541 0.444764
vt 0.098370 0.440955
vt 0.304752 0.388177
vt 0.576674 0.455952
vt 0.517371 0.435104
vt 0.041421 0.458485
vt 0.283023 0.389124
vt 0.465262 0.415321
vt 0.260763 0.391260
vt 0.428913 0.403734
vt 0.237188 0.394830
vt 0.398717 0.396698
vt 0.211904 0.400307
vt 0.372777 0.392217
vt 0.182454 0.408201
vt 0.348935 0.389548
vt 0.147540 0.420645
vt 0.326515 0.388346
vt 0.395176 0.415795
vt 0.240511 0.414643
vt 0.215863 0.418972
vt 0.370296 0.412283
vt 0.187261 0.425192
vt 0.347410 0.410262
vt 0.152431 0.435321
vt 0.325970 0.409401
vt 0.102010 0.452017
vt 0.305210 0.409290
vt 0.572847 0.462971
vt 0.513015 0.446405
vt 0.043759 0.465054
vt 0.284426 0.410070
vt 0.460719 0.430454
vt 0.263100 0.411772
vt 0.424417 0.421269
vt 0.325576 0.429541
vt 0.305557 0.429607
vt 0.569663 0.470469
vt 0.509421 0.457862
vt 0.045573 0.472200
vt 0.104855 0.463359
vt 0.285548 0.430209
vt 0.456708 0.445408
vt 0.264960 0.431540
vt 0.421119 0.438363
vt 0.243090 0.433783
vt 0.392659 0.434282
vt 0.219026 0.437165
vt 0.368300 0.431669
vt 0.191026 0.441938
vt 0.346259 0.430157
vt 0.156349 0.450003
vt 0.221459 0.454981
vt 0.390833 0.452272
vt 0.366860 0.450486
vt 0.193897 0.458489
vt 0.345451 0.449442
vt 0.159400 0.464673
vt 0.325350 0.449074
vt 0.106951 0.474940
vt 0.305888 0.449223
vt 0.566968 0.478173
vt 0.506573 0.469421
vt 0.046821 0.479841
vt 0.286440 0.449707
vt 0.453579 0.460285
vt 0.266401 0.450726
vt 0.418698 0.455104
vt 0.245060 0.452425
vt 0.049754 0.493289
vt 0.109425 0.486395
vt 0.287139 0.468743
vt 0.451795 0.475089
vt 0.267480 0.469489
vt 0.416914 0.471663
vt 0.246503 0.470706
vt 0.389345 0.469976
vt 0.223228 0.472519
vt 0.366099 0.468827
vt 0.195964 0.474881
vt 0.344986 0.468267
vt 0.161545 0.479300
vt 0.325276 0.468137
vt 0.306201 0.468354
vt 0.564614 0.486014
vt 0.504456 0.481006
vt 0.224384 0.489874
vt 0.197293 0.491162
vt 0.344802 0.486787
vt 0.162903 0.493847
vt 0.325339 0.486887
vt 0.111195 0.497823
vt 0.306501 0.487171
vt 0.562807 0.494092
vt 0.503025 0.492585
vt 0.052011 0.501141
vt 0.287669 0.487477
vt 0.450811 0.489743
vt 0.268233 0.487977
vt 0.415857 0.488094
vt 0.247470 0.488753
vt 0.388701 0.487432
vt 0.365613 0.486949
vt 0.502257 0.504159
vt 0.450152 0.504316
vt 0.268686 0.506329
vt 0.415644 0.504384
vt 0.247992 0.506688
vt 0.388603 0.504745
vt 0.224960 0.507143
vt 0.365592 0.504908
vt 0.197920 0.507390
vt 0.344901 0.505152
vt 0.163455 0.508333
vt 0.325542 0.505475
vt 0.112274 0.509195
vt 0.306794 0.505829
vt 0.561683 0.502289
vt 0.053722 0.509012
vt 0.288046 0.506059
vt 0.345290 0.523485
vt 0.163267 0.522814
vt 0.325888 0.524041
vt 0.111591 0.520593
vt 0.307088 0.524474
vt 0.561050 0.510386
vt 0.502167 0.515692
vt 0.053786 0.511412
vt 0.288278 0.524635
vt 0.450267 0.518866
vt 0.268851 0.524680
vt 0.416109 0.520581
vt 0.248083 0.524629
vt 0.389061 0.521990
vt 0.224968 0.524427
vt 0.366010 0.522822
vt 0.197868 0.523644
vt 0.268728 0.543166
vt 0.451660 0.533326
vt 0.417127 0.536804
vt 0.247740 0.542698
vt 0.390093 0.539275
vt 0.224400 0.541823
vt 0.366875 0.540816
vt 0.197140 0.540001
vt 0.345980 0.541920
vt 0.162237 0.537355
vt 0.326390 0.542728
vt 0.110228 0.532055
vt 0.307390 0.543250
vt 0.560765 0.518357
vt 0.502765 0.527120
vt 0.052438 0.519370
vt 0.288371 0.543347
vt 0.160752 0.551994
vt 0.346997 0.560596
vt 0.327065 0.561683
vt 0.109284 0.543594
vt 0.307708 0.562311
vt 0.561208 0.526216
vt 0.504053 0.538450
vt 0.050893 0.533009
vt 0.288324 0.562344
vt 0.453388 0.547800
vt 0.268308 0.561925
vt 0.419039 0.553114
vt 0.246943 0.561017
vt 0.391762 0.556718
vt 0.223221 0.559430
vt 0.368209 0.559013
vt 0.195528 0.556482
vt 0.421734 0.569522
vt 0.267568 0.581109
vt 0.245658 0.579714
vt 0.394137 0.574385
vt 0.221402 0.577326
vt 0.370040 0.577526
vt 0.193292 0.573142
vt 0.348382 0.579659
vt 0.157987 0.566679
vt 0.327940 0.581070
vt 0.106565 0.554828
vt 0.308053 0.581822
vt 0.562150 0.533765
vt 0.506068 0.549641
vt 0.050613 0.535336
vt 0.288129 0.581789
vt 0.455980 0.562291
vt 0.350212 0.599292
vt 0.329047 0.601065
vt 0.103085 0.565987
vt 0.308433 0.601967
vt 0.563445 0.540985
vt 0.508841 0.560617
vt 0.047899 0.542655
vt 0.287772 0.601864
vt 0.459965 0.576660
vt 0.266470 0.600889
vt 0.425151 0.586095
vt 0.243825 0.598945
vt 0.397032 0.592390
vt 0.218862 0.595666
vt 0.372645 0.596539
vt 0.190199 0.590125
vt 0.154273 0.581453
vt 0.264960 0.621458
vt 0.241362 0.618876
vt 0.401069 0.610896
vt 0.215481 0.614574
vt 0.375782 0.616138
vt 0.185987 0.607503
vt 0.352512 0.619634
vt 0.149980 0.596418
vt 0.330426 0.621866
vt 0.098822 0.577013
vt 0.308860 0.622956
vt 0.565435 0.547827
vt 0.512401 0.571362
vt 0.044707 0.549753
vt 0.287232 0.622775
vt 0.464529 0.591091
vt 0.429757 0.602969
vt 0.094629 0.588205
vt 0.332140 0.643725
vt 0.309347 0.645046
vt 0.567856 0.554116
vt 0.516805 0.581801
vt 0.039627 0.561220
vt 0.286474 0.644772
vt 0.470267 0.605492
vt 0.262961 0.643038
vt 0.435498 0.620115
vt 0.238154 0.639683
vt 0.406101 0.629950
vt 0.211136 0.634142
vt 0.379787 0.636540
vt 0.180672 0.625260
vt 0.355410 0.640939
vt 0.144448 0.611529
vt 0.205645 0.654506
vt 0.412361 0.649685
vt 0.384825 0.657941
vt 0.174182 0.643389
vt 0.359050 0.663460
vt 0.137290 0.626565
vt 0.334272 0.666938
vt 0.088687 0.598598
vt 0.309912 0.668549
vt 0.570701 0.559742
vt 0.522113 0.591846
vt 0.038631 0.563087
vt 0.285449 0.668160
vt 0.477302 0.619826
vt 0.260361 0.665904
vt 0.442601 0.637565
vt 0.234038 0.661587
vt 0.573808 0.564666
vt 0.528374 0.601364
vt 0.034246 0.568287
vt 0.081765 0.608592
vt 0.284086 0.693321
vt 0.486197 0.633817
vt 0.257001 0.690397
vt 0.451153 0.655262
vt 0.228785 0.684863
vt 0.420126 0.670222
vt 0.198721 0.675877
vt 0.391145 0.680573
vt 0.166066 0.662079
vt 0.363623 0.687513
vt 0.128709 0.641580
vt 0.336935 0.691875
vt 0.310576 0.693860
vt 0.429822 0.691766
vt 0.399095 0.704738
vt 0.190006 0.698426
vt 0.156019 0.681334
vt 0.369398 0.713500
vt 0.118456 0.656470
vt 0.340286 0.719014
vt 0.073819 0.618065
vt 0.311369 0.721485
vt 0.575255 0.565843
vt 0.536163 0.609790
vt 0.029466 0.572792
vt 0.282281 0.720745
vt 0.496306 0.647619
vt 0.252660 0.716945
vt 0.461880 0.673404
vt 0.222082 0.709836
vt 0.279884 0.751075
vt 0.544967 0.617527
vt 0.508412 0.660959
vt 0.247018 0.746094
vt 0.474972 0.691826
vt 0.213487 0.736895
vt 0.441914 0.714394
vt 0.179015 0.722334
vt 0.409151 0.730762
vt 0.143625 0.701124
vt 0.376751 0.741926
vt 0.106256 0.671065
vt 0.344545 0.748974
vt 0.064806 0.626858
vt 0.312325 0.752091
vt 0.580032 0.568747
vt 0.024456 0.576483
vt 0.165078 0.747775
vt 0.128334 0.721337
vt 0.386224 0.773449
vt 0.091806 0.685097
vt 0.350032 0.782587
vt 0.054699 0.634769
vt 0.313497 0.786581
vt 0.584746 0.570789
vt 0.554798 0.624361
vt 0.019393 0.579250
vt 0.276670 0.785174
vt 0.523038 0.673376
vt 0.239608 0.778560
vt 0.490724 0.710168
vt 0.202367 0.766519
vt 0.457066 0.738174
vt 0.421995 0.759041
vt 0.539888 0.684755
vt 0.229731 0.815305
vt 0.510432 0.728506
vt 0.187800 0.799294
vt 0.476310 0.763233
vt 0.147258 0.774882
vt 0.438617 0.790082
vt 0.109442 0.741726
vt 0.398621 0.808954
vt 0.074776 0.698170
vt 0.357215 0.821002
vt 0.043496 0.641551
vt 0.314954 0.826203
vt 0.591281 0.573099
vt 0.565445 0.630469
vt 0.014500 0.581010
vt 0.272299 0.824233
vt 0.415161 0.849650
vt 0.054839 0.709703
vt 0.366791 0.865838
vt 0.031246 0.646906
vt 0.316794 0.872700
vt 0.594282 0.573462
vt 0.577063 0.634983
vt 0.010056 0.581738
vt 0.266259 0.869943
vt 0.559642 0.694212
vt 0.216303 0.857668
vt 0.534123 0.745737
vt 0.168411 0.835924
vt 0.500872 0.789347
vt 0.124220 0.803687
vt 0.460454 0.824413
vt 0.086064 0.761795
vt 0.197544 0.907671
vt 0.563680 0.761267
vt 0.142120 0.877162
vt 0.532856 0.816291
vt 0.094000 0.834026
vt 0.489670 0.862595
vt 0.057154 0.780600
vt 0.437824 0.897360
vt 0.031711 0.718877
vt 0.379766 0.919475
vt 0.018073 0.650487
vt 0.319157 0.928451
vt 0.596555 0.572943
vt 0.589479 0.637587
vt 0.006393 0.581498
vt 0.257813 0.924787
vt 0.581926 0.701025
vt 0.005240 0.724573
vt 0.470366 0.955528
vt 0.397381 0.985541
vt 0.004213 0.651910
vt 0.322219 0.996118
vt 0.597664 0.571957
vt 0.602378 0.637927
vt 0.003882 0.580490
vt 0.246125 0.992546
vt 0.606843 0.703914
vt 0.170036 0.969158
vt 0.599621 0.772974
vt 0.105916 0.923142
vt 0.575310 0.843316
vt 0.053417 0.865496
vt 0.529260 0.904437
vt 0.021716 0.796325
vt 0.081905 0.104275
vt 0.174271 0.111599
vt 0.122605 0.146929
vt 0.594973 0.212858
vt 0.520769 0.175679
vt 0.559945 0.145390
vt 0.080106 0.192728
vt 0.039680 0.166851
vt 0.510992 0.085501
vt 0.473419 0.132585
vt 0.012071 0.234638
vt 0.048287 0.247454
vt 0.417974 0.101305
vt 0.445368 0.042849
vt 0.028981 0.307946
vt 0.003882 0.304794
vt 0.372631 0.013904
vt 0.357709 0.082928
vt 0.020985 0.372253
vt 0.008066 0.371901
vt 0.291246 0.003882
vt 0.294553 0.078413
vt 0.611151 0.358042
vt 0.611520 0.429195
vt 0.597343 0.359468
vt 0.012727 0.437982
vt 0.232192 0.088315
vt 0.211296 0.021308
vt 0.583746 0.291215
vt 0.610049 0.285739
vt 0.142161 0.056586
vt 0.558335 0.229433
vt 0.033572 0.374941
vt 0.348295 0.138652
vt 0.296941 0.136021
vt 0.609195 0.428263
vt 0.584211 0.363078
vt 0.013566 0.437806
vt 0.246113 0.142728
vt 0.560439 0.300394
vt 0.197345 0.159028
vt 0.529475 0.248226
vt 0.151991 0.185001
vt 0.490785 0.205863
vt 0.111506 0.219580
vt 0.446711 0.173773
vt 0.077180 0.263260
vt 0.398669 0.151127
vt 0.051742 0.315010
vt 0.467722 0.234777
vt 0.136027 0.246001
vt 0.427078 0.210420
vt 0.101219 0.280984
vt 0.384877 0.193773
vt 0.071285 0.324754
vt 0.341903 0.184927
vt 0.045254 0.379183
vt 0.298759 0.183236
vt 0.605751 0.428097
vt 0.571997 0.368498
vt 0.017773 0.436660
vt 0.255984 0.188102
vt 0.540264 0.311916
vt 0.214157 0.199985
vt 0.506240 0.268208
vt 0.173925 0.219391
vt 0.337368 0.224388
vt 0.300182 0.223257
vt 0.601437 0.428753
vt 0.560858 0.375360
vt 0.019132 0.436681
vt 0.055921 0.385350
vt 0.263266 0.226916
vt 0.523291 0.325169
vt 0.226695 0.235834
vt 0.487107 0.288737
vt 0.190625 0.250606
vt 0.449778 0.262120
vt 0.155285 0.271362
vt 0.412325 0.243332
vt 0.120824 0.299465
vt 0.374785 0.230853
vt 0.088252 0.336414
vt 0.170530 0.295502
vt 0.435727 0.287801
vt 0.401058 0.273145
vt 0.136859 0.318169
vt 0.367243 0.263630
vt 0.102773 0.349290
vt 0.334061 0.258804
vt 0.065510 0.392797
vt 0.301320 0.258038
vt 0.596685 0.430470
vt 0.550840 0.383365
vt 0.022726 0.437991
vt 0.268785 0.260856
vt 0.508951 0.339425
vt 0.236242 0.267692
vt 0.471617 0.309087
vt 0.203545 0.279129
vt 0.591735 0.433231
vt 0.541936 0.392254
vt 0.026528 0.440413
vt 0.074013 0.401271
vt 0.273052 0.291095
vt 0.496945 0.354267
vt 0.243628 0.296416
vt 0.458956 0.329052
vt 0.213684 0.305406
vt 0.424674 0.311918
vt 0.182684 0.318432
vt 0.392331 0.300415
vt 0.150009 0.336784
vt 0.361523 0.293050
vt 0.115130 0.362945
vt 0.331604 0.289400
vt 0.302245 0.288888
vt 0.416033 0.334580
vt 0.385455 0.325629
vt 0.192410 0.340233
vt 0.160825 0.355147
vt 0.357167 0.319803
vt 0.125598 0.377075
vt 0.329761 0.317050
vt 0.081460 0.410570
vt 0.303005 0.316737
vt 0.590385 0.434579
vt 0.534641 0.402466
vt 0.030302 0.443909
vt 0.276400 0.318477
vt 0.486333 0.369315
vt 0.249387 0.322635
vt 0.448833 0.348381
vt 0.221767 0.329847
vt 0.583555 0.442890
vt 0.037243 0.451115
s 0
usemtl マテリアル
f 308/1/1 482/2/1 21/3/1
f 4/4/2 15/5/2 5/6/2
f 475/7/3 7/8/3 8/9/3
f 5/6/4 16/10/4 478/11/4
f 1/12/5 8/9/5 9/13/5
f 478/11/6 17/14/6 6/15/6
f 476/16/7 9/13/7 10/17/7
f 6/15/8 18/18/8 479/19/8
f 2/20/9 10/17/9 11/21/9
f 479/19/10 19/22/10 480/23/10
f 477/24/11 11/21/11 12/25/11
f 480/23/12 20/26/12 481/27/12
f 3/28/13 12/25/13 13/29/13
f 481/27/14 21/3/14 482/2/14
f 3/28/15 14/30/15 4/4/15
f 474/31/16 82/32/16 7/8/16
f 20/26/17 36/33/17 21/3/17
f 13/29/18 29/34/18 14/30/18
f 7/8/19 82/35/19 22/36/19
f 308/37/20 21/3/20 36/33/20
f 14/30/21 30/38/21 15/5/21
f 7/8/22 23/39/22 8/9/22
f 15/5/23 31/40/23 16/10/23
f 8/9/24 24/41/24 9/13/24
f 16/10/25 32/42/25 17/14/25
f 9/13/26 25/43/26 10/17/26
f 17/14/27 33/44/27 18/18/27
f 10/17/28 26/45/28 11/21/28
f 19/22/29 33/44/29 34/46/29
f 11/21/30 27/47/30 12/25/30
f 20/26/31 34/46/31 35/48/31
f 13/29/32 27/47/32 28/49/32
f 24/41/33 40/50/33 25/43/33
f 33/44/34 47/51/34 48/52/34
f 25/43/35 41/53/35 26/45/35
f 34/46/36 48/52/36 49/54/36
f 26/45/37 42/55/37 27/47/37
f 34/46/38 50/56/38 35/48/38
f 27/47/39 43/57/39 28/49/39
f 35/48/40 51/58/40 36/33/40
f 28/49/41 44/59/41 29/34/41
f 22/36/42 82/60/42 37/61/42
f 308/62/43 36/33/43 51/58/43
f 30/38/44 44/59/44 45/63/44
f 22/36/45 38/64/45 23/39/45
f 30/38/46 46/65/46 31/40/46
f 23/39/47 39/66/47 24/41/47
f 32/42/48 46/65/48 47/51/48
f 44/59/49 58/67/49 59/68/49
f 37/61/50 82/69/50 52/70/50
f 308/71/51 51/58/51 66/72/51
f 44/59/52 60/73/52 45/63/52
f 37/61/53 53/74/53 38/64/53
f 45/63/54 61/75/54 46/65/54
f 38/64/55 54/76/55 39/66/55
f 47/51/56 61/75/56 62/77/56
f 39/66/57 55/78/57 40/50/57
f 47/51/58 63/79/58 48/52/58
f 40/50/59 56/80/59 41/53/59
f 48/52/60 64/81/60 49/54/60
f 41/53/61 57/82/61 42/55/61
f 49/54/62 65/83/62 50/56/62
f 43/57/63 57/82/63 58/67/63
f 50/56/64 66/72/64 51/58/64
f 62/77/65 78/84/65 63/79/65
f 56/80/66 70/85/66 71/86/66
f 63/79/67 79/87/67 64/81/67
f 56/80/68 72/88/68 57/82/68
f 65/83/69 79/87/69 80/89/69
f 58/67/70 72/88/70 73/90/70
f 65/83/71 81/91/71 66/72/71
f 59/68/72 73/90/72 74/92/72
f 52/70/73 82/93/73 67/94/73
f 308/95/74 66/72/74 81/91/74
f 59/68/75 75/96/75 60/73/75
f 52/70/76 68/97/76 53/74/76
f 60/73/77 76/98/77 61/75/77
f 53/74/78 69/99/78 54/76/78
f 62/77/79 76/98/79 77/100/79
f 54/76/80 70/85/80 55/78/80
f 308/101/81 81/91/81 97/102/81
f 74/92/82 91/103/82 75/96/82
f 67/94/83 84/104/83 68/97/83
f 75/96/84 92/105/84 76/98/84
f 68/97/85 85/106/85 69/99/85
f 77/100/86 92/105/86 93/107/86
f 69/99/87 86/108/87 70/85/87
f 77/100/88 94/109/88 78/84/88
f 71/86/89 86/108/89 87/110/89
f 78/84/90 95/111/90 79/87/90
f 71/86/91 88/112/91 72/88/91
f 79/87/92 96/113/92 80/89/92
f 73/90/93 88/112/93 89/114/93
f 81/91/94 96/113/94 97/102/94
f 74/92/95 89/114/95 90/115/95
f 67/94/96 82/116/96 83/117/96
f 95/111/97 109/118/97 110/119/97
f 87/110/98 103/120/98 88/112/98
f 96/113/99 110/119/99 111/121/99
f 89/114/100 103/120/100 104/122/100
f 96/113/101 112/123/101 97/102/101
f 90/115/102 104/122/102 105/124/102
f 83/117/103 82/125/103 98/126/103
f 308/127/104 97/102/104 112/123/104
f 90/115/105 106/128/105 91/103/105
f 84/104/106 98/126/106 99/129/106
f 91/103/107 107/130/107 92/105/107
f 84/104/108 100/131/108 85/106/108
f 93/107/109 107/130/109 108/132/109
f 85/106/110 101/133/110 86/108/110
f 93/107/111 109/118/111 94/109/111
f 87/110/112 101/133/112 102/134/112
f 99/129/113 113/135/113 114/136/113
f 106/128/114 122/137/114 107/130/114
f 99/129/115 115/138/115 100/131/115
f 108/132/116 122/137/116 123/139/116
f 100/131/117 116/140/117 101/133/117
f 108/132/118 124/141/118 109/118/118
f 102/134/119 116/140/119 117/142/119
f 110/119/120 124/141/120 125/143/120
f 102/134/121 118/144/121 103/120/121
f 110/119/122 126/145/122 111/121/122
f 104/122/123 118/144/123 119/146/123
f 111/121/124 127/147/124 112/123/124
f 105/124/125 119/146/125 120/148/125
f 98/126/126 82/149/126 113/135/126
f 308/150/127 112/123/127 127/147/127
f 105/124/128 121/151/128 106/128/128
f 117/142/129 133/152/129 118/144/129
f 125/143/130 141/153/130 126/145/130
f 119/146/131 133/152/131 134/154/131
f 126/145/132 142/155/132 127/147/132
f 120/148/133 134/154/133 135/156/133
f 113/135/134 82/157/134 128/158/134
f 308/159/135 127/147/135 142/155/135
f 120/148/136 136/160/136 121/151/136
f 113/135/137 129/161/137 114/136/137
f 121/151/138 137/162/138 122/137/138
f 114/136/139 130/163/139 115/138/139
f 123/139/140 137/162/140 138/164/140
f 115/138/141 131/165/141 116/140/141
f 123/139/142 139/166/142 124/141/142
f 117/142/143 131/165/143 132/167/143
f 125/143/144 139/166/144 140/168/144
f 136/160/145 152/169/145 137/162/145
f 130/163/146 144/170/146 145/171/146
f 138/164/147 152/169/147 153/172/147
f 130/163/148 146/173/148 131/165/148
f 138/164/149 154/174/149 139/166/149
f 132/167/150 146/173/150 147/175/150
f 140/168/151 154/174/151 155/176/151
f 132/167/152 148/177/152 133/152/152
f 140/168/153 156/178/153 141/153/153
f 134/154/154 148/177/154 149/179/154
f 142/155/155 156/178/155 157/180/155
f 135/156/156 149/179/156 150/181/156
f 128/158/157 82/182/157 143/183/157
f 308/184/158 142/155/158 157/180/158
f 135/156/159 151/185/159 136/160/159
f 128/158/160 144/170/160 129/161/160
f 155/176/161 171/186/161 156/178/161
f 149/179/162 163/187/162 164/188/162
f 156/178/163 172/189/163 157/180/163
f 150/181/164 164/188/164 165/190/164
f 143/183/165 82/191/165 158/192/165
f 308/193/166 157/180/166 172/189/166
f 150/181/167 166/194/167 151/185/167
f 143/183/168 159/195/168 144/170/168
f 151/185/169 167/196/169 152/169/169
f 145/171/170 159/195/170 160/197/170
f 153/172/171 167/196/171 168/198/171
f 145/171/172 161/199/172 146/173/172
f 153/172/173 169/200/173 154/174/173
f 147/175/174 161/199/174 162/201/174
f 155/176/175 169/200/175 170/202/175
f 147/175/176 163/187/176 148/177/176
f 159/195/177 175/203/177 160/197/177
f 168/198/178 182/204/178 183/205/178
f 160/197/179 176/206/179 161/199/179
f 168/198/180 184/207/180 169/200/180
f 162/201/181 176/206/181 177/208/181
f 169/200/182 185/209/182 170/202/182
f 162/201/183 178/210/183 163/187/183
f 171/186/184 185/209/184 186/211/184
f 164/188/185 178/210/185 179/212/185
f 172/189/186 186/211/186 187/213/186
f 165/190/187 179/212/187 180/214/187
f 158/192/188 82/215/188 173/216/188
f 308/217/189 172/189/189 187/213/189
f 165/190/190 181/218/190 166/194/190
f 158/192/191 174/219/191 159/195/191
f 166/194/192 182/204/192 167/196/192
f 179/212/193 193/220/193 194/221/193
f 186/211/194 202/222/194 187/213/194
f 180/214/195 194/221/195 195/223/195
f 173/216/196 82/224/196 188/225/196
f 308/226/197 187/213/197 202/222/197
f 180/214/198 196/227/198 181/218/198
f 174/219/199 188/225/199 189/228/199
f 181/218/200 197/229/200 182/204/200
f 175/203/201 189/228/201 190/230/201
f 183/205/202 197/229/202 198/231/202
f 175/203/203 191/232/203 176/206/203
f 183/205/204 199/233/204 184/207/204
f 177/208/205 191/232/205 192/234/205
f 185/209/206 199/233/206 200/235/206
f 177/208/207 193/220/207 178/210/207
f 185/209/208 201/236/208 186/211/208
f 198/231/209 212/237/209 213/238/209
f 190/230/210 206/239/210 191/232/210
f 198/231/211 214/240/211 199/233/211
f 192/234/212 206/239/212 207/241/212
f 200/235/213 214/240/213 215/242/213
f 192/234/214 208/243/214 193/220/214
f 200/235/215 216/244/215 201/236/215
f 194/221/216 208/243/216 209/245/216
f 201/236/217 217/246/217 202/222/217
f 195/223/218 209/245/218 210/247/218
f 188/225/219 82/248/219 203/249/219
f 308/250/220 202/222/220 217/246/220
f 195/223/221 211/251/221 196/227/221
f 188/225/222 204/252/222 189/228/222
f 196/227/223 212/237/223 197/229/223
f 189/228/224 205/253/224 190/230/224
f 216/244/225 232/254/225 217/246/225
f 210/247/226 224/255/226 225/256/226
f 203/249/227 82/257/227 218/258/227
f 308/259/228 217/246/228 232/254/228
f 210/247/229 226/260/229 211/251/229
f 203/249/230 219/261/230 204/252/230
f 211/251/231 227/262/231 212/237/231
f 204/252/232 220/263/232 205/253/232
f 213/238/233 227/262/233 228/264/233
f 205/253/234 221/265/234 206/239/234
f 213/238/235 229/266/235 214/240/235
f 207/241/236 221/265/236 222/267/236
f 215/242/237 229/266/237 230/268/237
f 207/241/238 223/269/238 208/243/238
f 215/242/239 231/270/239 216/244/239
f 209/245/240 223/269/240 224/255/240
f 228/264/241 244/271/241 229/266/241
f 222/267/242 236/272/242 237/273/242
f 230/268/243 244/271/243 245/274/243
f 222/267/244 238/275/244 223/269/244
f 230/268/245 246/276/245 231/270/245
f 224/255/246 238/275/246 239/277/246
f 232/254/247 246/276/247 247/278/247
f 225/256/248 239/277/248 240/279/248
f 218/258/249 82/280/249 233/281/249
f 308/282/250 232/254/250 247/278/250
f 225/256/251 241/283/251 226/260/251
f 218/258/252 234/284/252 219/261/252
f 226/260/253 242/285/253 227/262/253
f 220/263/254 234/284/254 235/286/254
f 228/264/255 242/285/255 243/287/255
f 220/263/256 236/272/256 221/265/256
f 233/281/257 82/288/257 248/289/257
f 308/290/258 247/278/258 262/291/258
f 240/279/259 256/292/259 241/283/259
f 233/281/260 249/293/260 234/284/260
f 241/283/261 257/294/261 242/285/261
f 234/284/262 250/295/262 235/286/262
f 243/287/263 257/294/263 258/296/263
f 235/286/264 251/297/264 236/272/264
f 243/287/265 259/298/265 244/271/265
f 237/273/266 251/297/266 252/299/266
f 245/274/267 259/298/267 260/300/267
f 237/273/268 253/301/268 238/275/268
f 245/274/269 261/302/269 246/276/269
f 239/277/270 253/301/270 254/303/270
f 246/276/271 262/291/271 247/278/271
f 240/279/272 254/303/272 255/304/272
f 252/299/273 266/305/273 267/306/273
f 260/300/274 274/307/274 275/308/274
f 252/299/275 268/309/275 253/301/275
f 260/300/276 276/310/276 261/302/276
f 254/303/277 268/309/277 269/311/277
f 261/302/278 277/312/278 262/291/278
f 255/304/279 269/311/279 270/313/279
f 248/289/280 82/314/280 263/315/280
f 308/316/281 262/291/281 277/312/281
f 255/304/282 271/317/282 256/292/282
f 249/293/283 263/315/283 264/318/283
f 256/292/284 272/319/284 257/294/284
f 249/293/285 265/320/285 250/295/285
f 258/296/286 272/319/286 273/321/286
f 250/295/287 266/305/287 251/297/287
f 258/296/288 274/307/288 259/298/288
f 270/313/289 286/322/289 271/317/289
f 264/318/290 278/323/290 279/324/290
f 271/317/291 287/325/291 272/319/291
f 264/318/292 280/326/292 265/320/292
f 273/321/293 287/325/293 288/327/293
f 265/320/294 281/328/294 266/305/294
f 273/321/295 289/329/295 274/307/295
f 267/306/296 281/328/296 282/330/296
f 275/308/297 289/329/297 290/331/297
f 267/306/298 283/332/298 268/309/298
f 275/308/299 291/333/299 276/310/299
f 269/311/300 283/332/300 284/334/300
f 277/312/301 291/333/301 292/335/301
f 270/313/302 284/334/302 285/336/302
f 263/315/303 82/337/303 278/323/303
f 308/338/304 277/312/304 292/335/304
f 290/331/305 304/339/305 305/340/305
f 282/330/306 298/341/306 283/332/306
f 290/331/307 306/342/307 291/333/307
f 284/334/308 298/341/308 299/343/308
f 292/335/309 306/342/309 307/344/309
f 285/336/310 299/343/310 300/345/310
f 278/323/311 82/346/311 293/347/311
f 308/348/312 292/335/312 307/344/312
f 285/336/313 301/349/313 286/322/313
f 278/323/314 294/350/314 279/324/314
f 286/322/315 302/351/315 287/325/315
f 279/324/316 295/352/316 280/326/316
f 288/327/317 302/351/317 303/353/317
f 280/326/318 296/354/318 281/328/318
f 288/327/319 304/339/319 289/329/319
f 282/330/320 296/354/320 297/355/320
f 293/347/321 310/356/321 294/350/321
f 301/349/322 318/357/322 302/351/322
f 294/350/323 311/358/323 295/352/323
f 303/353/324 318/357/324 319/359/324
f 295/352/325 312/360/325 296/354/325
f 303/353/326 320/361/326 304/339/326
f 297/355/327 312/360/327 313/362/327
f 305/340/328 320/361/328 321/363/328
f 297/355/329 314/364/329 298/341/329
f 305/340/330 322/365/330 306/342/330
f 299/343/331 314/364/331 315/366/331
f 306/342/332 323/367/332 307/344/332
f 300/345/333 315/366/333 316/368/333
f 293/347/334 82/369/334 309/370/334
f 308/371/335 307/344/335 323/367/335
f 300/345/336 317/372/336 301/349/336
f 313/362/337 329/373/337 314/364/337
f 321/363/338 337/374/338 322/365/338
f 315/366/339 329/373/339 330/375/339
f 322/365/340 338/376/340 323/367/340
f 316/368/341 330/375/341 331/377/341
f 309/370/342 82/378/342 324/379/342
f 308/380/343 323/367/343 338/376/343
f 316/368/344 332/381/344 317/372/344
f 309/370/345 325/382/345 310/356/345
f 317/372/346 333/383/346 318/357/346
f 310/356/347 326/384/347 311/358/347
f 319/359/348 333/383/348 334/385/348
f 311/358/349 327/386/349 312/360/349
f 319/359/350 335/387/350 320/361/350
f 312/360/351 328/388/351 313/362/351
f 321/363/352 335/387/352 336/389/352
f 332/381/353 348/390/353 333/383/353
f 325/382/354 341/391/354 326/384/354
f 334/385/355 348/390/355 349/392/355
f 326/384/356 342/393/356 327/386/356
f 334/385/357 350/394/357 335/387/357
f 328/388/358 342/393/358 343/395/358
f 336/389/359 350/394/359 351/396/359
f 328/388/360 344/397/360 329/373/360
f 336/389/361 352/398/361 337/374/361
f 330/375/362 344/397/362 345/399/362
f 337/374/363 353/400/363 338/376/363
f 331/377/364 345/399/364 346/401/364
f 324/379/365 82/402/365 339/403/365
f 308/404/366 338/376/366 353/400/366
f 331/377/367 347/405/367 332/381/367
f 324/379/368 340/406/368 325/382/368
f 351/396/369 367/407/369 352/398/369
f 345/399/370 359/408/370 360/409/370
f 352/398/371 368/410/371 353/400/371
f 346/401/372 360/409/372 361/411/372
f 339/403/373 82/412/373 354/413/373
f 308/414/374 353/400/374 368/410/374
f 346/401/375 362/415/375 347/405/375
f 339/403/376 355/416/376 340/406/376
f 347/405/377 363/417/377 348/390/377
f 341/391/378 355/416/378 356/418/378
f 349/392/379 363/417/379 364/419/379
f 341/391/380 357/420/380 342/393/380
f 349/392/381 365/421/381 350/394/381
f 343/395/382 357/420/382 358/422/382
f 351/396/383 365/421/383 366/423/383
f 343/395/384 359/408/384 344/397/384
f 364/424/385 378/425/385 379/426/385
f 356/427/386 372/428/386 357/429/386
f 364/424/387 380/430/387 365/431/387
f 358/432/388 372/428/388 373/433/388
f 366/434/389 380/430/389 381/435/389
f 358/432/390 374/436/390 359/437/390
f 366/434/391 382/438/391 367/439/391
f 360/440/392 374/436/392 375/441/392
f 367/439/393 383/442/393 368/443/393
f 361/444/394 375/441/394 376/445/394
f 354/446/395 82/447/395 369/448/395
f 308/449/396 368/443/396 383/442/396
f 361/444/397 377/450/397 362/451/397
f 354/446/398 370/452/398 355/453/398
f 362/451/399 378/425/399 363/454/399
f 356/427/400 370/452/400 371/455/400
f 382/438/401 398/456/401 383/442/401
f 376/445/402 390/457/402 391/458/402
f 369/448/403 82/459/403 384/460/403
f 308/461/404 383/442/404 398/456/404
f 376/445/405 392/462/405 377/450/405
f 369/448/406 385/463/406 370/452/406
f 377/450/407 393/464/407 378/425/407
f 371/455/408 385/463/408 386/465/408
f 379/426/409 393/464/409 394/466/409
f 371/455/410 387/467/410 372/428/410
f 379/426/411 395/468/411 380/430/411
f 373/433/412 387/467/412 388/469/412
f 381/435/413 395/468/413 396/470/413
f 373/433/414 389/471/414 374/436/414
f 381/435/415 397/472/415 382/438/415
f 375/441/416 389/471/416 390/457/416
f 386/465/417 402/473/417 387/467/417
f 394/466/418 410/474/418 395/468/418
f 388/469/419 402/473/419 403/475/419
f 396/470/420 410/474/420 411/476/420
f 388/469/421 404/477/421 389/471/421
f 397/472/422 411/476/422 412/478/422
f 390/457/423 404/477/423 405/479/423
f 397/472/424 413/480/424 398/456/424
f 391/458/425 405/479/425 406/481/425
f 384/460/426 82/482/426 399/483/426
f 308/484/427 398/456/427 413/480/427
f 391/458/428 407/485/428 392/462/428
f 385/463/429 399/483/429 400/486/429
f 392/462/430 408/487/430 393/464/430
f 385/463/431 401/488/431 386/465/431
f 394/466/432 408/487/432 409/489/432
f 406/481/433 420/490/433 421/491/433
f 399/483/434 82/492/434 414/493/434
f 308/494/435 413/480/435 428/495/435
f 406/481/436 422/496/436 407/485/436
f 399/483/437 415/497/437 400/486/437
f 407/485/438 423/498/438 408/487/438
f 401/488/439 415/497/439 416/499/439
f 409/489/440 423/498/440 424/500/440
f 401/488/441 417/501/441 402/473/441
f 409/489/442 425/502/442 410/474/442
f 403/475/443 417/501/443 418/503/443
f 411/476/444 425/502/444 426/504/444
f 403/475/445 419/505/445 404/477/445
f 411/476/446 427/506/446 412/478/446
f 405/479/447 419/505/447 420/490/447
f 412/478/448 428/495/448 413/480/448
f 424/500/449 440/507/449 425/502/449
f 418/503/450 432/508/450 433/509/450
f 426/504/451 440/507/451 441/510/451
f 418/503/452 434/511/452 419/505/452
f 426/504/453 442/512/453 427/506/453
f 420/490/454 434/511/454 435/513/454
f 427/506/455 443/514/455 428/495/455
f 421/491/456 435/513/456 436/515/456
f 414/493/457 82/516/457 429/517/457
f 308/518/458 428/495/458 443/514/458
f 421/491/459 437/519/459 422/496/459
f 414/493/460 430/520/460 415/497/460
f 422/496/461 438/521/461 423/498/461
f 416/499/462 430/520/462 431/522/462
f 424/500/463 438/521/463 439/523/463
f 416/499/464 432/508/464 417/501/464
f 429/517/465 82/524/465 444/525/465
f 308/526/466 443/514/466 458/527/466
f 436/515/467 452/528/467 437/519/467
f 430/520/468 444/525/468 445/529/468
f 437/519/469 453/530/469 438/521/469
f 430/520/470 446/531/470 431/522/470
f 439/523/471 453/530/471 454/532/471
f 431/522/472 447/533/472 432/508/472
f 439/523/473 455/534/473 440/507/473
f 433/509/474 447/533/474 448/535/474
f 441/510/475 455/534/475 456/536/475
f 433/509/476 449/537/476 434/511/476
f 441/510/477 457/538/477 442/512/477
f 435/513/478 449/537/478 450/539/478
f 442/512/479 458/527/479 443/514/479
f 436/515/480 450/539/480 451/540/480
f 448/535/481 462/541/481 463/542/481
f 456/536/482 470/543/482 471/544/482
f 448/535/483 464/545/483 449/537/483
f 456/536/484 472/546/484 457/538/484
f 450/539/485 464/545/485 465/547/485
f 458/527/486 472/546/486 473/548/486
f 451/540/487 465/547/487 466/549/487
f 444/525/488 82/550/488 459/551/488
f 308/552/489 458/527/489 473/548/489
f 451/540/490 467/553/490 452/528/490
f 444/525/491 460/554/491 445/529/491
f 452/528/492 468/555/492 453/530/492
f 446/531/493 460/554/493 461/556/493
f 454/532/494 468/555/494 469/557/494
f 446/531/495 462/541/495 447/533/495
f 454/532/496 470/543/496 455/534/496
f 466/549/497 5/6/497 467/553/497
f 460/554/498 474/31/498 475/7/498
f 467/553/499 478/11/499 468/555/499
f 461/556/500 475/7/500 1/12/500
f 468/555/501 6/15/501 469/557/501
f 462/541/502 1/12/502 476/16/502
f 469/557/503 479/19/503 470/543/503
f 463/542/504 476/16/504 2/20/504
f 471/544/505 479/19/505 480/23/505
f 464/545/506 2/20/506 477/24/506
f 471/544/507 481/27/507 472/546/507
f 465/547/508 477/24/508 3/28/508
f 472/546/509 482/2/509 473/548/509
f 466/549/510 3/28/510 4/4/510
f 459/551/511 82/558/511 474/31/511
f 308/559/512 473/548/512 482/2/512
f 4/4/513 14/30/513 15/5/513
f 475/7/3 474/31/3 7/8/3
f 5/6/4 15/5/4 16/10/4
f 1/12/5 475/7/5 8/9/5
f 478/11/6 16/10/6 17/14/6
f 476/16/7 1/12/7 9/13/7
f 6/15/8 17/14/8 18/18/8
f 2/20/9 476/16/9 10/17/9
f 479/19/10 18/18/10 19/22/10
f 477/24/11 2/20/11 11/21/11
f 480/23/12 19/22/12 20/26/12
f 3/28/13 477/24/13 12/25/13
f 481/27/14 20/26/14 21/3/14
f 3/28/514 13/29/514 14/30/514
f 20/26/17 35/48/17 36/33/17
f 13/29/18 28/49/18 29/34/18
f 14/30/21 29/34/21 30/38/21
f 7/8/22 22/36/22 23/39/22
f 15/5/23 30/38/23 31/40/23
f 8/9/24 23/39/24 24/41/24
f 16/10/25 31/40/25 32/42/25
f 9/13/26 24/41/26 25/43/26
f 17/14/27 32/42/27 33/44/27
f 10/17/28 25/43/28 26/45/28
f 19/22/29 18/18/29 33/44/29
f 11/21/30 26/45/30 27/47/30
f 20/26/31 19/22/31 34/46/31
f 13/29/32 12/25/32 27/47/32
f 24/41/33 39/66/33 40/50/33
f 33/44/34 32/42/34 47/51/34
f 25/43/35 40/50/35 41/53/35
f 34/46/36 33/44/36 48/52/36
f 26/45/37 41/53/37 42/55/37
f 34/46/515 49/54/515 50/56/515
f 27/47/39 42/55/39 43/57/39
f 35/48/40 50/56/40 51/58/40
f 28/49/41 43/57/41 44/59/41
f 30/38/44 29/34/44 44/59/44
f 22/36/45 37/61/45 38/64/45
f 30/38/46 45/63/46 46/65/46
f 23/39/516 38/64/516 39/66/516
f 32/42/48 31/40/48 46/65/48
f 44/59/49 43/57/49 58/67/49
f 44/59/52 59/68/52 60/73/52
f 37/61/53 52/70/53 53/74/53
f 45/63/54 60/73/54 61/75/54
f 38/64/55 53/74/55 54/76/55
f 47/51/56 46/65/56 61/75/56
f 39/66/57 54/76/57 55/78/57
f 47/51/58 62/77/58 63/79/58
f 40/50/59 55/78/59 56/80/59
f 48/52/60 63/79/60 64/81/60
f 41/53/61 56/80/61 57/82/61
f 49/54/62 64/81/62 65/83/62
f 43/57/63 42/55/63 57/82/63
f 50/56/64 65/83/64 66/72/64
f 62/77/65 77/100/65 78/84/65
f 56/80/66 55/78/66 70/85/66
f 63/79/67 78/84/67 79/87/67
f 56/80/68 71/86/68 72/88/68
f 65/83/69 64/81/69 79/87/69
f 58/67/70 57/82/70 72/88/70
f 65/83/517 80/89/517 81/91/517
f 59/68/72 58/67/72 73/90/72
f 59/68/75 74/92/75 75/96/75
f 52/70/76 67/94/76 68/97/76
f 60/73/77 75/96/77 76/98/77
f 53/74/78 68/97/78 69/99/78
f 62/77/79 61/75/79 76/98/79
f 54/76/80 69/99/80 70/85/80
f 74/92/82 90/115/82 91/103/82
f 67/94/83 83/117/83 84/104/83
f 75/96/84 91/103/84 92/105/84
f 68/97/85 84/104/85 85/106/85
f 77/100/86 76/98/86 92/105/86
f 69/99/87 85/106/87 86/108/87
f 77/100/88 93/107/88 94/109/88
f 71/86/89 70/85/89 86/108/89
f 78/84/90 94/109/90 95/111/90
f 71/86/91 87/110/91 88/112/91
f 79/87/92 95/111/92 96/113/92
f 73/90/93 72/88/93 88/112/93
f 81/91/94 80/89/94 96/113/94
f 74/92/95 73/90/95 89/114/95
f 95/111/97 94/109/97 109/118/97
f 87/110/98 102/134/98 103/120/98
f 96/113/99 95/111/99 110/119/99
f 89/114/100 88/112/100 103/120/100
f 96/113/101 111/121/101 112/123/101
f 90/115/102 89/114/102 104/122/102
f 90/115/105 105/124/105 106/128/105
f 84/104/106 83/117/106 98/126/106
f 91/103/107 106/128/107 107/130/107
f 84/104/108 99/129/108 100/131/108
f 93/107/109 92/105/109 107/130/109
f 85/106/110 100/131/110 101/133/110
f 93/107/111 108/132/111 109/118/111
f 87/110/112 86/108/112 101/133/112
f 99/129/113 98/126/113 113/135/113
f 106/128/114 121/151/114 122/137/114
f 99/129/115 114/136/115 115/138/115
f 108/132/116 107/130/116 122/137/116
f 100/131/117 115/138/117 116/140/117
f 108/132/118 123/139/118 124/141/118
f 102/134/119 101/133/119 116/140/119
f 110/119/120 109/118/120 124/141/120
f 102/134/121 117/142/121 118/144/121
f 110/119/122 125/143/122 126/145/122
f 104/122/123 103/120/123 118/144/123
f 111/121/124 126/145/124 127/147/124
f 105/124/125 104/122/125 119/146/125
f 105/124/128 120/148/128 121/151/128
f 117/142/129 132/167/129 133/152/129
f 125/143/130 140/168/130 141/153/130
f 119/146/131 118/144/131 133/152/131
f 126/145/132 141/153/132 142/155/132
f 120/148/133 119/146/133 134/154/133
f 120/148/136 135/156/136 136/160/136
f 113/135/137 128/158/137 129/161/137
f 121/151/138 136/160/138 137/162/138
f 114/136/139 129/161/139 130/163/139
f 123/139/140 122/137/140 137/162/140
f 115/138/141 130/163/141 131/165/141
f 123/139/142 138/164/142 139/166/142
f 117/142/143 116/140/143 131/165/143
f 125/143/144 124/141/144 139/166/144
f 136/160/145 151/185/145 152/169/145
f 130/163/146 129/161/146 144/170/146
f 138/164/147 137/162/147 152/169/147
f 130/163/148 145/171/148 146/173/148
f 138/164/149 153/172/149 154/174/149
f 132/167/150 131/165/150 146/173/150
f 140/168/151 139/166/151 154/174/151
f 132/167/152 147/175/152 148/177/152
f 140/168/153 155/176/153 156/178/153
f 134/154/154 133/152/154 148/177/154
f 142/155/155 141/153/155 156/178/155
f 135/156/156 134/154/156 149/179/156
f 135/156/159 150/181/159 151/185/159
f 128/158/160 143/183/160 144/170/160
f 155/176/518 170/202/518 171/186/518
f 149/179/162 148/177/162 163/187/162
f 156/178/163 171/186/163 172/189/163
f 150/181/164 149/179/164 164/188/164
f 150/181/167 165/190/167 166/194/167
f 143/183/168 158/192/168 159/195/168
f 151/185/169 166/194/169 167/196/169
f 145/171/519 144/170/519 159/195/519
f 153/172/171 152/169/171 167/196/171
f 145/171/172 160/197/172 161/199/172
f 153/172/173 168/198/173 169/200/173
f 147/175/174 146/173/174 161/199/174
f 155/176/175 154/174/175 169/200/175
f 147/175/176 162/201/176 163/187/176
f 159/195/177 174/219/177 175/203/177
f 168/198/178 167/196/178 182/204/178
f 160/197/179 175/203/179 176/206/179
f 168/198/180 183/205/180 184/207/180
f 162/201/181 161/199/181 176/206/181
f 169/200/182 184/207/182 185/209/182
f 162/201/183 177/208/183 178/210/183
f 171/186/184 170/202/184 185/209/184
f 164/188/185 163/187/185 178/210/185
f 172/189/186 171/186/186 186/211/186
f 165/190/187 164/188/187 179/212/187
f 165/190/190 180/214/190 181/218/190
f 158/192/191 173/216/191 174/219/191
f 166/194/192 181/218/192 182/204/192
f 179/212/193 178/210/193 193/220/193
f 186/211/194 201/236/194 202/222/194
f 180/214/195 179/212/195 194/221/195
f 180/214/198 195/223/198 196/227/198
f 174/219/199 173/216/199 188/225/199
f 181/218/200 196/227/200 197/229/200
f 175/203/201 174/219/201 189/228/201
f 183/205/202 182/204/202 197/229/202
f 175/203/203 190/230/203 191/232/203
f 183/205/204 198/231/204 199/233/204
f 177/208/205 176/206/205 191/232/205
f 185/209/206 184/207/206 199/233/206
f 177/208/207 192/234/207 193/220/207
f 185/209/208 200/235/208 201/236/208
f 198/231/209 197/229/209 212/237/209
f 190/230/210 205/253/210 206/239/210
f 198/231/211 213/238/211 214/240/211
f 192/234/212 191/232/212 206/239/212
f 200/235/213 199/233/213 214/240/213
f 192/234/214 207/241/214 208/243/214
f 200/235/520 215/242/520 216/244/520
f 194/221/216 193/220/216 208/243/216
f 201/236/217 216/244/217 217/246/217
f 195/223/218 194/221/218 209/245/218
f 195/223/221 210/247/221 211/251/221
f 188/225/222 203/249/222 204/252/222
f 196/227/223 211/251/223 212/237/223
f 189/228/224 204/252/224 205/253/224
f 216/244/225 231/270/225 232/254/225
f 210/247/226 209/245/226 224/255/226
f 210/247/229 225/256/229 226/260/229
f 203/249/230 218/258/230 219/261/230
f 211/251/231 226/260/231 227/262/231
f 204/252/232 219/261/232 220/263/232
f 213/238/233 212/237/233 227/262/233
f 205/253/234 220/263/234 221/265/234
f 213/238/235 228/264/235 229/266/235
f 207/241/236 206/239/236 221/265/236
f 215/242/237 214/240/237 229/266/237
f 207/241/238 222/267/238 223/269/238
f 215/242/239 230/268/239 231/270/239
f 209/245/240 208/243/240 223/269/240
f 228/264/241 243/287/241 244/271/241
f 222/267/242 221/265/242 236/272/242
f 230/268/243 229/266/243 244/271/243
f 222/267/244 237/273/244 238/275/244
f 230/268/245 245/274/245 246/276/245
f 224/255/246 223/269/246 238/275/246
f 232/254/247 231/270/247 246/276/247
f 225/256/248 224/255/248 239/277/248
f 225/256/251 240/279/251 241/283/251
f 218/258/252 233/281/252 234/284/252
f 226/260/253 241/283/253 242/285/253
f 220/263/254 219/261/254 234/284/254
f 228/264/255 227/262/255 242/285/255
f 220/263/256 235/286/256 236/272/256
f 240/279/521 255/304/521 256/292/521
f 233/281/260 248/289/260 249/293/260
f 241/283/261 256/292/261 257/294/261
f 234/284/262 249/293/262 250/295/262
f 243/287/263 242/285/263 257/294/263
f 235/286/264 250/295/264 251/297/264
f 243/287/265 258/296/265 259/298/265
f 237/273/266 236/272/266 251/297/266
f 245/274/267 244/271/267 259/298/267
f 237/273/268 252/299/268 253/301/268
f 245/274/269 260/300/269 261/302/269
f 239/277/270 238/275/270 253/301/270
f 246/276/271 261/302/271 262/291/271
f 240/279/522 239/277/522 254/303/522
f 252/299/273 251/297/273 266/305/273
f 260/300/274 259/298/274 274/307/274
f 252/299/275 267/306/275 268/309/275
f 260/300/276 275/308/276 276/310/276
f 254/303/277 253/301/277 268/309/277
f 261/302/278 276/310/278 277/312/278
f 255/304/279 254/303/279 269/311/279
f 255/304/282 270/313/282 271/317/282
f 249/293/283 248/289/283 263/315/283
f 256/292/284 271/317/284 272/319/284
f 249/293/285 264/318/285 265/320/285
f 258/296/286 257/294/286 272/319/286
f 250/295/287 265/320/287 266/305/287
f 258/296/288 273/321/288 274/307/288
f 270/313/289 285/336/289 286/322/289
f 264/318/290 263/315/290 278/323/290
f 271/317/291 286/322/291 287/325/291
f 264/318/523 279/324/523 280/326/523
f 273/321/293 272/319/293 287/325/293
f 265/320/294 280/326/294 281/328/294
f 273/321/295 288/327/295 289/329/295
f 267/306/296 266/305/296 281/328/296
f 275/308/297 274/307/297 289/329/297
f 267/306/298 282/330/298 283/332/298
f 275/308/524 290/331/524 291/333/524
f 269/311/300 268/309/300 283/332/300
f 277/312/301 276/310/301 291/333/301
f 270/313/302 269/311/302 284/334/302
f 290/331/305 289/329/305 304/339/305
f 282/330/306 297/355/306 298/341/306
f 290/331/307 305/340/307 306/342/307
f 284/334/308 283/332/308 298/341/308
f 292/335/309 291/333/309 306/342/309
f 285/336/310 284/334/310 299/343/310
f 285/336/313 300/345/313 301/349/313
f 278/323/314 293/347/314 294/350/314
f 286/322/315 301/349/315 302/351/315
f 279/324/316 294/350/316 295/352/316
f 288/327/317 287/325/317 302/351/317
f 280/326/318 295/352/318 296/354/318
f 288/327/319 303/353/319 304/339/319
f 282/330/320 281/328/320 296/354/320
f 293/347/321 309/370/321 310/356/321
f 301/349/322 317/372/322 318/357/322
f 294/350/323 310/356/323 311/358/323
f 303/353/324 302/351/324 318/357/324
f 295/352/325 311/358/325 312/360/325
f 303/353/326 319/359/326 320/361/326
f 297/355/327 296/354/327 312/360/327
f 305/340/328 304/339/328 320/361/328
f 297/355/329 313/362/329 314/364/329
f 305/340/330 321/363/330 322/365/330
f 299/343/331 298/341/331 314/364/331
f 306/342/525 322/365/525 323/367/525
f 300/345/333 299/343/333 315/366/333
f 300/345/336 316/368/336 317/372/336
f 313/362/337 328/388/337 329/373/337
f 321/363/526 336/389/526 337/374/526
f 315/366/339 314/364/339 329/373/339
f 322/365/340 337/374/340 338/376/340
f 316/368/341 315/366/341 330/375/341
f 316/368/344 331/377/344 332/381/344
f 309/370/345 324/379/345 325/382/345
f 317/372/346 332/381/346 333/383/346
f 310/356/347 325/382/347 326/384/347
f 319/359/348 318/357/348 333/383/348
f 311/358/349 326/384/349 327/386/349
f 319/359/350 334/385/350 335/387/350
f 312/360/351 327/386/351 328/388/351
f 321/363/352 320/361/352 335/387/352
f 332/381/353 347/405/353 348/390/353
f 325/382/354 340/406/354 341/391/354
f 334/385/355 333/383/355 348/390/355
f 326/384/356 341/391/356 342/393/356
f 334/385/357 349/392/357 350/394/357
f 328/388/358 327/386/358 342/393/358
f 336/389/359 335/387/359 350/394/359
f 328/388/360 343/395/360 344/397/360
f 336/389/361 351/396/361 352/398/361
f 330/375/362 329/373/362 344/397/362
f 337/374/363 352/398/363 353/400/363
f 331/377/364 330/375/364 345/399/364
f 331/377/367 346/401/367 347/405/367
f 324/379/368 339/403/368 340/406/368
f 351/396/369 366/423/369 367/407/369
f 345/399/370 344/397/370 359/408/370
f 352/398/371 367/407/371 368/410/371
f 346/401/527 345/399/527 360/409/527
f 346/401/528 361/411/528 362/415/528
f 339/403/376 354/413/376 355/416/376
f 347/405/377 362/415/377 363/417/377
f 341/391/378 340/406/378 355/416/378
f 349/392/379 348/390/379 363/417/379
f 341/391/380 356/418/380 357/420/380
f 349/392/381 364/419/381 365/421/381
f 343/395/382 342/393/382 357/420/382
f 351/396/383 350/394/383 365/421/383
f 343/395/384 358/422/384 359/408/384
f 364/424/385 363/454/385 378/425/385
f 356/427/386 371/455/386 372/428/386
f 364/424/387 379/426/387 380/430/387
f 358/432/388 357/429/388 372/428/388
f 366/434/389 365/431/389 380/430/389
f 358/432/390 373/433/390 374/436/390
f 366/434/391 381/435/391 382/438/391
f 360/440/392 359/437/392 374/436/392
f 367/439/393 382/438/393 383/442/393
f 361/444/529 360/440/529 375/441/529
f 361/444/530 376/445/530 377/450/530
f 354/446/398 369/448/398 370/452/398
f 362/451/399 377/450/399 378/425/399
f 356/427/400 355/453/400 370/452/400
f 382/438/401 397/472/401 398/456/401
f 376/445/402 375/441/402 390/457/402
f 376/445/405 391/458/405 392/462/405
f 369/448/406 384/460/406 385/463/406
f 377/450/407 392/462/407 393/464/407
f 371/455/408 370/452/408 385/463/408
f 379/426/409 378/425/409 393/464/409
f 371/455/410 386/465/410 387/467/410
f 379/426/411 394/466/411 395/468/411
f 373/433/412 372/428/412 387/467/412
f 381/435/413 380/430/413 395/468/413
f 373/433/414 388/469/414 389/471/414
f 381/435/415 396/470/415 397/472/415
f 375/441/416 374/436/416 389/471/416
f 386/465/417 401/488/417 402/473/417
f 394/466/418 409/489/418 410/474/418
f 388/469/419 387/467/419 402/473/419
f 396/470/420 395/468/420 410/474/420
f 388/469/421 403/475/421 404/477/421
f 397/472/422 396/470/422 411/476/422
f 390/457/423 389/471/423 404/477/423
f 397/472/424 412/478/424 413/480/424
f 391/458/425 390/457/425 405/479/425
f 391/458/428 406/481/428 407/485/428
f 385/463/429 384/460/429 399/483/429
f 392/462/430 407/485/430 408/487/430
f 385/463/431 400/486/431 401/488/431
f 394/466/432 393/464/432 408/487/432
f 406/481/433 405/479/433 420/490/433
f 406/481/436 421/491/436 422/496/436
f 399/483/437 414/493/437 415/497/437
f 407/485/438 422/496/438 423/498/438
f 401/488/439 400/486/439 415/497/439
f 409/489/440 408/487/440 423/498/440
f 401/488/441 416/499/441 417/501/441
f 409/489/442 424/500/442 425/502/442
f 403/475/443 402/473/443 417/501/443
f 411/476/444 410/474/444 425/502/444
f 403/475/445 418/503/445 419/505/445
f 411/476/446 426/504/446 427/506/446
f 405/479/447 404/477/447 419/505/447
f 412/478/448 427/506/448 428/495/448
f 424/500/449 439/523/449 440/507/449
f 418/503/450 417/501/450 432/508/450
f 426/504/451 425/502/451 440/507/451
f 418/503/452 433/509/452 434/511/452
f 426/504/453 441/510/453 442/512/453
f 420/490/454 419/505/454 434/511/454
f 427/506/455 442/512/455 443/514/455
f 421/491/456 420/490/456 435/513/456
f 421/491/459 436/515/459 437/519/459
f 414/493/460 429/517/460 430/520/460
f 422/496/461 437/519/461 438/521/461
f 416/499/462 415/497/462 430/520/462
f 424/500/463 423/498/463 438/521/463
f 416/499/464 431/522/464 432/508/464
f 436/515/467 451/540/467 452/528/467
f 430/520/468 429/517/468 444/525/468
f 437/519/469 452/528/469 453/530/469
f 430/520/470 445/529/470 446/531/470
f 439/523/471 438/521/471 453/530/471
f 431/522/472 446/531/472 447/533/472
f 439/523/473 454/532/473 455/534/473
f 433/509/474 432/508/474 447/533/474
f 441/510/475 440/507/475 455/534/475
f 433/509/476 448/535/476 449/537/476
f 441/510/477 456/536/477 457/538/477
f 435/513/478 434/511/478 449/537/478
f 442/512/479 457/538/479 458/527/479
f 436/515/480 435/513/480 450/539/480
f 448/535/481 447/533/481 462/541/481
f 456/536/482 455/534/482 470/543/482
f 448/535/483 463/542/483 464/545/483
f 456/536/484 471/544/484 472/546/484
f 450/539/485 449/537/485 464/545/485
f 458/527/486 457/538/486 472/546/486
f 451/540/487 450/539/487 465/547/487
f 451/540/490 466/549/490 467/553/490
f 444/525/491 459/551/491 460/554/491
f 452/528/492 467/553/492 468/555/492
f 446/531/493 445/529/493 460/554/493
f 454/532/494 453/530/494 468/555/494
f 446/531/495 461/556/495 462/541/495
f 454/532/496 469/557/496 470/543/496
f 466/549/497 4/4/497 5/6/497
f 460/554/498 459/551/498 474/31/498
f 467/553/499 5/6/499 478/11/499
f 461/556/500 460/554/500 475/7/500
f 468/555/501 478/11/501 6/15/501
f 462/541/502 461/556/502 1/12/502
f 469/557/503 6/15/503 479/19/503
f 463/542/504 462/541/504 476/16/504
f 471/544/505 470/543/505 479/19/505
f 464/545/506 463/542/506 2/20/506
f 471/544/507 480/23/507 481/27/507
f 465/547/508 464/545/508 477/24/508
f 472/546/509 481/27/509 482/2/509
f 466/549/510 465/547/510 3/28/510
